<?xml version="1.0" encoding="UTF-8" standalone="no"?><svg xmlns="http://www.w3.org/2000/svg" xmlns:xlink="http://www.w3.org/1999/xlink" contentScriptType="application/ecmascript" contentStyleType="text/css" height="345px" preserveAspectRatio="none" style="width:797px;height:345px;" version="1.1" viewBox="0 0 797 345" width="797px" zoomAndPan="magnify"><defs><filter height="300%" id="fgooxo7vqcck3" width="300%" x="-1" y="-1"><feGaussianBlur result="blurOut" stdDeviation="2.0"/><feColorMatrix in="blurOut" result="blurOut2" type="matrix" values="0 0 0 0 0 0 0 0 0 0 0 0 0 0 0 0 0 0 .4 0"/><feOffset dx="4.0" dy="4.0" in="blurOut2" result="blurOut3"/><feBlend in="SourceGraphic" in2="blurOut3" mode="normal"/></filter></defs><g><!--MD5=[f9d0f110abe48034484b50e18738bd74]
class C_0004656454891698739199--><rect fill="#FEFECE" filter="url(#fgooxo7vqcck3)" height="124.8281" id="C_0004656454891698739199" style="stroke: #A80036; stroke-width: 1.5;" width="114" x="229" y="210"/><ellipse cx="244" cy="226" fill="#EB937F" rx="11" ry="11" style="stroke: #A80036; stroke-width: 1.0;"/><path d="M248.1094,232 L240.3906,232 L240.3906,219.6094 L248.1094,219.6094 L248.1094,221.7656 L242.8438,221.7656 L242.8438,224.4375 L247.6094,224.4375 L247.6094,226.5938 L242.8438,226.5938 L242.8438,229.8438 L248.1094,229.8438 L248.1094,232 Z "/><text fill="#000000" font-family="sans-serif" font-size="12" lengthAdjust="spacingAndGlyphs" textLength="82" x="258" y="230.1543">ALU_OP_TYPE</text><line style="stroke: #A80036; stroke-width: 1.5;" x1="230" x2="342" y1="242" y2="242"/><text fill="#000000" font-family="sans-serif" font-size="11" lengthAdjust="spacingAndGlyphs" textLength="74" x="235" y="256.2104">MEMORY_REF</text><text fill="#000000" font-family="sans-serif" font-size="11" lengthAdjust="spacingAndGlyphs" textLength="46" x="235" y="269.0151">BRANCH</text><text fill="#000000" font-family="sans-serif" font-size="11" lengthAdjust="spacingAndGlyphs" textLength="41" x="235" y="281.8198">R_TYPE</text><text fill="#000000" font-family="sans-serif" font-size="11" lengthAdjust="spacingAndGlyphs" textLength="37" x="235" y="294.6245">I_TYPE</text><text fill="#000000" font-family="sans-serif" font-size="11" lengthAdjust="spacingAndGlyphs" textLength="17" x="235" y="307.4292">LUI</text><text fill="#000000" font-family="sans-serif" font-size="11" lengthAdjust="spacingAndGlyphs" textLength="33" x="235" y="320.2339">AUIPC</text><line style="stroke: #A80036; stroke-width: 1.5;" x1="230" x2="342" y1="326.8281" y2="326.8281"/><!--MD5=[4a492656c4203cadab5d700ae686f7da]
class C_0013073819460140400346--><rect fill="#FEFECE" filter="url(#fgooxo7vqcck3)" height="124.8281" id="C_0013073819460140400346" style="stroke: #A80036; stroke-width: 1.5;" width="152" x="6" y="8"/><ellipse cx="35.4" cy="24" fill="#ADD1B2" rx="11" ry="11" style="stroke: #A80036; stroke-width: 1.0;"/><path d="M38.3688,29.6406 Q37.7906,29.9375 37.15,30.0781 Q36.5094,30.2344 35.8063,30.2344 Q33.3063,30.2344 31.9781,28.5938 Q30.6656,26.9375 30.6656,23.8125 Q30.6656,20.6875 31.9781,19.0313 Q33.3063,17.375 35.8063,17.375 Q36.5094,17.375 37.15,17.5313 Q37.8063,17.6875 38.3688,17.9844 L38.3688,20.7031 Q37.7438,20.125 37.15,19.8594 Q36.5563,19.5781 35.9313,19.5781 Q34.5875,19.5781 33.9,20.6563 Q33.2125,21.7188 33.2125,23.8125 Q33.2125,25.9063 33.9,26.9844 Q34.5875,28.0469 35.9313,28.0469 Q36.5563,28.0469 37.15,27.7813 Q37.7438,27.5 38.3688,26.9219 L38.3688,29.6406 Z "/><text fill="#000000" font-family="sans-serif" font-size="12" lengthAdjust="spacingAndGlyphs" textLength="88" x="52.6" y="28.1543">ExecuteSignal</text><line style="stroke: #A80036; stroke-width: 1.5;" x1="7" x2="157" y1="40" y2="40"/><line style="stroke: #A80036; stroke-width: 1.5;" x1="7" x2="157" y1="48" y2="48"/><ellipse cx="17" cy="59" fill="none" rx="3" ry="3" style="stroke: #038048; stroke-width: 1.0;"/><text fill="#000000" font-family="sans-serif" font-size="11" lengthAdjust="spacingAndGlyphs" textLength="126" x="26" y="62.2104">ALUOp : ALU_OP_TYPE</text><ellipse cx="17" cy="71.8047" fill="none" rx="3" ry="3" style="stroke: #038048; stroke-width: 1.0;"/><text fill="#000000" font-family="sans-serif" font-size="11" lengthAdjust="spacingAndGlyphs" textLength="76" x="26" y="75.0151">ALUSrc : bool</text><ellipse cx="17" cy="84.6094" fill="none" rx="3" ry="3" style="stroke: #038048; stroke-width: 1.0;"/><text fill="#000000" font-family="sans-serif" font-size="11" lengthAdjust="spacingAndGlyphs" textLength="69" x="26" y="87.8198">AUIPC : bool</text><ellipse cx="17" cy="97.4141" fill="none" rx="3" ry="3" style="stroke: #038048; stroke-width: 1.0;"/><text fill="#000000" font-family="sans-serif" font-size="11" lengthAdjust="spacingAndGlyphs" textLength="76" x="26" y="100.6245">Branch : bool</text><ellipse cx="17" cy="110.2188" fill="none" rx="3" ry="3" style="stroke: #038048; stroke-width: 1.0;"/><text fill="#000000" font-family="sans-serif" font-size="11" lengthAdjust="spacingAndGlyphs" textLength="64" x="26" y="113.4292">Jump : bool</text><ellipse cx="17" cy="123.0234" fill="none" rx="3" ry="3" style="stroke: #038048; stroke-width: 1.0;"/><text fill="#000000" font-family="sans-serif" font-size="11" lengthAdjust="spacingAndGlyphs" textLength="53" x="26" y="126.2339">LUI : bool</text><!--MD5=[f80cc2d33629a3c85a9395482b79250b]
class C_0016369973225969588653--><rect fill="#FEFECE" filter="url(#fgooxo7vqcck3)" height="112.0234" id="C_0016369973225969588653" style="stroke: #A80036; stroke-width: 1.5;" width="593" x="193.5" y="14.5"/><ellipse cx="474.25" cy="30.5" fill="#ADD1B2" rx="11" ry="11" style="stroke: #A80036; stroke-width: 1.0;"/><path d="M477.2188,36.1406 Q476.6406,36.4375 476,36.5781 Q475.3594,36.7344 474.6563,36.7344 Q472.1563,36.7344 470.8281,35.0938 Q469.5156,33.4375 469.5156,30.3125 Q469.5156,27.1875 470.8281,25.5313 Q472.1563,23.875 474.6563,23.875 Q475.3594,23.875 476,24.0313 Q476.6563,24.1875 477.2188,24.4844 L477.2188,27.2031 Q476.5938,26.625 476,26.3594 Q475.4063,26.0781 474.7813,26.0781 Q473.4375,26.0781 472.75,27.1563 Q472.0625,28.2188 472.0625,30.3125 Q472.0625,32.4063 472.75,33.4844 Q473.4375,34.5469 474.7813,34.5469 Q475.4063,34.5469 476,34.2813 Q476.5938,34 477.2188,33.4219 L477.2188,36.1406 Z "/><text fill="#000000" font-family="sans-serif" font-size="12" lengthAdjust="spacingAndGlyphs" textLength="23" x="494.75" y="34.6543">ALU</text><line style="stroke: #A80036; stroke-width: 1.5;" x1="194.5" x2="785.5" y1="46.5" y2="46.5"/><rect fill="#F24D5C" height="6" style="stroke: #C82930; stroke-width: 1.0;" width="6" x="201.5" y="54.5"/><text fill="#000000" font-family="sans-serif" font-size="11" lengthAdjust="spacingAndGlyphs" text-decoration="underline" textLength="406" x="213.5" y="60.7104">Adder(uint32_t p_Src1, uint32_t p_Src2, bool cin, bool &amp; carry) : int32_t</text><ellipse cx="204.5" cy="70.3047" fill="#84BE84" rx="3" ry="3" style="stroke: #038048; stroke-width: 1.0;"/><text fill="#000000" font-family="sans-serif" font-size="11" lengthAdjust="spacingAndGlyphs" text-decoration="underline" textLength="363" x="213.5" y="73.5151">AluControl(uint32_t p_funct3, uint32_t p_funct7) : std::bitset&lt;4&gt;</text><ellipse cx="204.5" cy="83.1094" fill="#84BE84" rx="3" ry="3" style="stroke: #038048; stroke-width: 1.0;"/><text fill="#000000" font-family="sans-serif" font-size="11" lengthAdjust="spacingAndGlyphs" text-decoration="underline" textLength="431" x="213.5" y="86.3198">Generate_OpA(const uint32_t PC, uint32_t p_Src1, bool p_Selector) : int32_t</text><ellipse cx="204.5" cy="95.9141" fill="#84BE84" rx="3" ry="3" style="stroke: #038048; stroke-width: 1.0;"/><text fill="#000000" font-family="sans-serif" font-size="11" lengthAdjust="spacingAndGlyphs" text-decoration="underline" textLength="435" x="213.5" y="99.1245">Generate_OpB(uint32_t p_Src2, const int32_t imm, bool p_Selector) : int32_t</text><ellipse cx="204.5" cy="108.7188" fill="#84BE84" rx="3" ry="3" style="stroke: #038048; stroke-width: 1.0;"/><text fill="#000000" font-family="sans-serif" font-size="11" lengthAdjust="spacingAndGlyphs" text-decoration="underline" textLength="567" x="213.5" y="111.9292">Operate(std::bitset&lt;4&gt; p_ALUFunct, ALU_OP_TYPE p_ALUOp, int32_t p_OpA, int32_t p_OpB) : int32_t</text><line style="stroke: #A80036; stroke-width: 1.5;" x1="194.5" x2="785.5" y1="118.5234" y2="118.5234"/><!--MD5=[712e7810dab292944179762a23769d2e]
reverse link C_0013073819460140400346 to C_0004656454891698739199--><path d="M154.46,142.54 C178.89,166.49 205.8,192.88 228.89,215.51 " fill="none" id="C_0013073819460140400346&lt;-C_0004656454891698739199" style="stroke: #A80036; stroke-width: 1.0;"/><polygon fill="#FFFFFF" points="144.87,133.14,146.3556,140.1964,153.4406,141.5391,151.955,134.4827,144.87,133.14" style="stroke: #A80036; stroke-width: 1.0;"/><ellipse cx="197" cy="172.0664" fill="none" rx="3" ry="3" style="stroke: #038048; stroke-width: 1.0;"/><text fill="#000000" font-family="sans-serif" font-size="13" lengthAdjust="spacingAndGlyphs" textLength="44" x="204" y="176.0669">ALUOp</text><!--MD5=[67695ffa246e3c43a9195a9ad21347c9]
link C_0016369973225969588653 to C_0004656454891698739199--><path d="M433.72,126.68 C406.74,153.13 374.39,184.85 346.84,211.85 " fill="none" id="C_0016369973225969588653-&gt;C_0004656454891698739199" style="stroke: #A80036; stroke-width: 1.0; stroke-dasharray: 7.0,7.0;"/><polygon fill="#A80036" points="343.16,215.46,352.3876,212.0175,346.7311,211.9604,346.7882,206.3038,343.16,215.46" style="stroke: #A80036; stroke-width: 1.0;"/><!--MD5=[a58e8ee9524409d55e718b71423c17f9]
@startuml
enum "ALU_OP_TYPE" as C_0004656454891698739199
enum C_0004656454891698739199 {
MEMORY_REF
BRANCH
R_TYPE
I_TYPE
LUI
AUIPC
}
class "ExecuteSignal" as C_0013073819460140400346
class C_0013073819460140400346 {
__
+ALUOp : ALU_OP_TYPE
+ALUSrc : bool
+AUIPC : bool
+Branch : bool
+Jump : bool
+LUI : bool
}
class "ALU" as C_0016369973225969588653
class C_0016369973225969588653 {
{static} -Adder(uint32_t p_Src1, uint32_t p_Src2, bool cin, bool & carry) : int32_t
{static} +AluControl(uint32_t p_funct3, uint32_t p_funct7) : std::bitset<4>
{static} +Generate_OpA(const uint32_t PC, uint32_t p_Src1, bool p_Selector) : int32_t
{static} +Generate_OpB(uint32_t p_Src2, const int32_t imm, bool p_Selector) : int32_t
{static} +Operate(std::bitset<4> p_ALUFunct, ALU_OP_TYPE p_ALUOp, int32_t p_OpA, int32_t p_OpB) : int32_t
__
}
C_0013073819460140400346 o- - C_0004656454891698739199 : +ALUOp
C_0016369973225969588653 ..> C_0004656454891698739199

@enduml

PlantUML version 1.2020.02(Sun Mar 01 18:22:07 CST 2020)
(GPL source distribution)
Java Runtime: OpenJDK Runtime Environment
JVM: OpenJDK 64-Bit Server VM
Java Version: 21.0.9+10-Ubuntu-124.04
Operating System: Linux
Default Encoding: UTF-8
Language: en
Country: null
--></g></svg>