<?xml version="1.0" encoding="UTF-8" standalone="no"?><svg xmlns="http://www.w3.org/2000/svg" xmlns:xlink="http://www.w3.org/1999/xlink" contentScriptType="application/ecmascript" contentStyleType="text/css" height="438px" preserveAspectRatio="none" style="width:1377px;height:438px;" version="1.1" viewBox="0 0 1377 438" width="1377px" zoomAndPan="magnify"><defs><filter height="300%" id="fd0w9623h6ofq" width="300%" x="-1" y="-1"><feGaussianBlur result="blurOut" stdDeviation="2.0"/><feColorMatrix in="blurOut" result="blurOut2" type="matrix" values="0 0 0 0 0 0 0 0 0 0 0 0 0 0 0 0 0 0 .4 0"/><feOffset dx="4.0" dy="4.0" in="blurOut2" result="blurOut3"/><feBlend in="SourceGraphic" in2="blurOut3" mode="normal"/></filter></defs><g><!--MD5=[4ec1327df9c9660ae3543f219bd63ceb]
class C_0015323669539243454141--><rect fill="#FEFECE" filter="url(#fd0w9623h6ofq)" height="86.4141" id="C_0015323669539243454141" style="stroke: #A80036; stroke-width: 1.5;" width="85" x="283.5" y="292"/><ellipse cx="298.5" cy="308" fill="#EB937F" rx="11" ry="11" style="stroke: #A80036; stroke-width: 1.0;"/><path d="M302.6094,314 L294.8906,314 L294.8906,301.6094 L302.6094,301.6094 L302.6094,303.7656 L297.3438,303.7656 L297.3438,306.4375 L302.1094,306.4375 L302.1094,308.5938 L297.3438,308.5938 L297.3438,311.8438 L302.6094,311.8438 L302.6094,314 Z "/><text fill="#000000" font-family="sans-serif" font-size="12" lengthAdjust="spacingAndGlyphs" textLength="53" x="312.5" y="312.1543">MEM_RW</text><line style="stroke: #A80036; stroke-width: 1.5;" x1="284.5" x2="367.5" y1="324" y2="324"/><text fill="#000000" font-family="sans-serif" font-size="11" lengthAdjust="spacingAndGlyphs" textLength="24" x="289.5" y="338.2104">NOP</text><text fill="#000000" font-family="sans-serif" font-size="11" lengthAdjust="spacingAndGlyphs" textLength="29" x="289.5" y="351.0151">READ</text><text fill="#000000" font-family="sans-serif" font-size="11" lengthAdjust="spacingAndGlyphs" textLength="33" x="289.5" y="363.8198">WRITE</text><line style="stroke: #A80036; stroke-width: 1.5;" x1="284.5" x2="367.5" y1="370.4141" y2="370.4141"/><!--MD5=[0d001d254163a07b2dd6ba0bfab79d41]
class C_0018167716232135348682--><rect fill="#FEFECE" filter="url(#fd0w9623h6ofq)" height="86.4141" id="C_0018167716232135348682" style="stroke: #A80036; stroke-width: 1.5;" width="146" x="6" y="44"/><ellipse cx="33.6" cy="60" fill="#ADD1B2" rx="11" ry="11" style="stroke: #A80036; stroke-width: 1.0;"/><path d="M36.5688,65.6406 Q35.9906,65.9375 35.35,66.0781 Q34.7094,66.2344 34.0063,66.2344 Q31.5063,66.2344 30.1781,64.5938 Q28.8656,62.9375 28.8656,59.8125 Q28.8656,56.6875 30.1781,55.0313 Q31.5063,53.375 34.0063,53.375 Q34.7094,53.375 35.35,53.5313 Q36.0063,53.6875 36.5688,53.9844 L36.5688,56.7031 Q35.9438,56.125 35.35,55.8594 Q34.7563,55.5781 34.1313,55.5781 Q32.7875,55.5781 32.1,56.6563 Q31.4125,57.7188 31.4125,59.8125 Q31.4125,61.9063 32.1,62.9844 Q32.7875,64.0469 34.1313,64.0469 Q34.7563,64.0469 35.35,63.7813 Q35.9438,63.5 36.5688,62.9219 L36.5688,65.6406 Z "/><text fill="#000000" font-family="sans-serif" font-size="12" lengthAdjust="spacingAndGlyphs" textLength="86" x="50.4" y="64.1543">MemorySignal</text><line style="stroke: #A80036; stroke-width: 1.5;" x1="7" x2="151" y1="76" y2="76"/><line style="stroke: #A80036; stroke-width: 1.5;" x1="7" x2="151" y1="84" y2="84"/><ellipse cx="17" cy="95" fill="none" rx="3" ry="3" style="stroke: #038048; stroke-width: 1.0;"/><text fill="#000000" font-family="sans-serif" font-size="11" lengthAdjust="spacingAndGlyphs" textLength="102" x="26" y="98.2104">MemRW : MEM_RW</text><ellipse cx="17" cy="107.8047" fill="none" rx="3" ry="3" style="stroke: #038048; stroke-width: 1.0;"/><text fill="#000000" font-family="sans-serif" font-size="11" lengthAdjust="spacingAndGlyphs" textLength="120" x="26" y="111.0151">MemSize : MEM_SIZE</text><ellipse cx="17" cy="120.6094" fill="none" rx="3" ry="3" style="stroke: #038048; stroke-width: 1.0;"/><text fill="#000000" font-family="sans-serif" font-size="11" lengthAdjust="spacingAndGlyphs" textLength="78" x="26" y="123.8198">SignExt : bool</text><!--MD5=[f200b29a4627f36bad6146faa5ebde4d]
class C_0013021121252725846004--><rect fill="#FEFECE" filter="url(#fd0w9623h6ofq)" height="132.8281" id="C_0013021121252725846004" style="stroke: #A80036; stroke-width: 1.5;" width="210" x="994" y="20.5"/><ellipse cx="1056.25" cy="36.5" fill="#ADD1B2" rx="11" ry="11" style="stroke: #A80036; stroke-width: 1.0;"/><path d="M1059.2188,42.1406 Q1058.6406,42.4375 1058,42.5781 Q1057.3594,42.7344 1056.6563,42.7344 Q1054.1563,42.7344 1052.8281,41.0938 Q1051.5156,39.4375 1051.5156,36.3125 Q1051.5156,33.1875 1052.8281,31.5313 Q1054.1563,29.875 1056.6563,29.875 Q1057.3594,29.875 1058,30.0313 Q1058.6563,30.1875 1059.2188,30.4844 L1059.2188,33.2031 Q1058.5938,32.625 1058,32.3594 Q1057.4063,32.0781 1056.7813,32.0781 Q1055.4375,32.0781 1054.75,33.1563 Q1054.0625,34.2188 1054.0625,36.3125 Q1054.0625,38.4063 1054.75,39.4844 Q1055.4375,40.5469 1056.7813,40.5469 Q1057.4063,40.5469 1058,40.2813 Q1058.5938,40 1059.2188,39.4219 L1059.2188,42.1406 Z "/><text fill="#000000" font-family="sans-serif" font-size="12" lengthAdjust="spacingAndGlyphs" textLength="77" x="1076.75" y="40.6543">MainMemory</text><line style="stroke: #A80036; stroke-width: 1.5;" x1="995" x2="1203" y1="52.5" y2="52.5"/><ellipse cx="1005" cy="63.5" fill="#84BE84" rx="3" ry="3" style="stroke: #038048; stroke-width: 1.0;"/><text fill="#000000" font-family="sans-serif" font-size="11" lengthAdjust="spacingAndGlyphs" textLength="114" x="1014" y="66.7104">MainMemory() : void</text><ellipse cx="1005" cy="76.3047" fill="#84BE84" rx="3" ry="3" style="stroke: #038048; stroke-width: 1.0;"/><text fill="#000000" font-family="sans-serif" font-size="11" lengthAdjust="spacingAndGlyphs" textLength="123" x="1014" y="79.5151">~MainMemory() : void</text><line style="stroke: #A80036; stroke-width: 1.0; stroke-dasharray: 1.0,2.0;" x1="995" x2="1203" y1="86.1094" y2="86.1094"/><ellipse cx="1005" cy="97.1094" fill="#84BE84" rx="3" ry="3" style="stroke: #038048; stroke-width: 1.0;"/><text fill="#000000" font-family="sans-serif" font-size="11" lengthAdjust="spacingAndGlyphs" textLength="73" x="1014" y="100.3198">Clear() : void</text><line style="stroke: #A80036; stroke-width: 1.5;" x1="995" x2="1203" y1="106.9141" y2="106.9141"/><rect fill="none" height="6" style="stroke: #C82930; stroke-width: 1.0;" width="6" x="1002" y="114.9141"/><text fill="#000000" font-family="sans-serif" font-size="11" lengthAdjust="spacingAndGlyphs" textLength="184" x="1014" y="121.1245">PHY_HIGH_ADDR : const uint32_t</text><rect fill="none" height="6" style="stroke: #C82930; stroke-width: 1.0;" width="6" x="1002" y="127.7188"/><text fill="#000000" font-family="sans-serif" font-size="11" lengthAdjust="spacingAndGlyphs" textLength="180" x="1014" y="133.9292">PHY_LOW_ADDR : const uint32_t</text><polygon fill="none" points="1005,138.5234,1009,142.5234,1005,146.5234,1001,142.5234" style="stroke: #B38D22; stroke-width: 1.0;"/><text fill="#000000" font-family="sans-serif" font-size="11" lengthAdjust="spacingAndGlyphs" text-decoration="underline" textLength="181" x="1014" y="146.7339">Storage : std::vector&lt;uint32_t&gt;</text><!--MD5=[e3c2fb45959a7b256317014ef8cf1573]
class C_0004957594941363761658--><rect fill="#FEFECE" filter="url(#fd0w9623h6ofq)" height="184.0469" id="C_0004957594941363761658" style="stroke: #A80036; stroke-width: 1.5;" width="713" x="653.5" y="243"/><ellipse cx="961.75" cy="259" fill="#ADD1B2" rx="11" ry="11" style="stroke: #A80036; stroke-width: 1.0;"/><path d="M964.7188,264.6406 Q964.1406,264.9375 963.5,265.0781 Q962.8594,265.2344 962.1563,265.2344 Q959.6563,265.2344 958.3281,263.5938 Q957.0156,261.9375 957.0156,258.8125 Q957.0156,255.6875 958.3281,254.0313 Q959.6563,252.375 962.1563,252.375 Q962.8594,252.375 963.5,252.5313 Q964.1563,252.6875 964.7188,252.9844 L964.7188,255.7031 Q964.0938,255.125 963.5,254.8594 Q962.9063,254.5781 962.2813,254.5781 Q960.9375,254.5781 960.25,255.6563 Q959.5625,256.7188 959.5625,258.8125 Q959.5625,260.9063 960.25,261.9844 Q960.9375,263.0469 962.2813,263.0469 Q962.9063,263.0469 963.5,262.7813 Q964.0938,262.5 964.7188,261.9219 L964.7188,264.6406 Z "/><text fill="#000000" font-family="sans-serif" font-size="12" lengthAdjust="spacingAndGlyphs" textLength="88" x="982.25" y="263.1543">Segmentation</text><line style="stroke: #A80036; stroke-width: 1.5;" x1="654.5" x2="1365.5" y1="275" y2="275"/><ellipse cx="664.5" cy="286" fill="#84BE84" rx="3" ry="3" style="stroke: #038048; stroke-width: 1.0;"/><text fill="#000000" font-family="sans-serif" font-size="11" lengthAdjust="spacingAndGlyphs" textLength="483" x="673.5" y="289.2104">Segmentation(uint32_t p_startAddr, uint32_t p_endAddr, uint32_t p_textLength) : void</text><line style="stroke: #A80036; stroke-width: 1.0; stroke-dasharray: 1.0,2.0;" x1="654.5" x2="1365.5" y1="295.8047" y2="295.8047"/><rect fill="#F24D5C" height="6" style="stroke: #C82930; stroke-width: 1.0;" width="6" x="661.5" y="303.8047"/><text fill="#000000" font-family="sans-serif" font-size="11" lengthAdjust="spacingAndGlyphs" textLength="289" x="673.5" y="310.0151">AddrTranslate(const uint32_t p_Address) : uint32_t</text><rect fill="#F24D5C" height="6" style="stroke: #C82930; stroke-width: 1.0;" width="6" x="661.5" y="316.6094"/><text fill="#000000" font-family="sans-serif" font-size="11" lengthAdjust="spacingAndGlyphs" textLength="242" x="673.5" y="322.8198">EndianceToggle(uint32_t p_Data) : uint32_t</text><ellipse cx="664.5" cy="332.4141" fill="#84BE84" rx="3" ry="3" style="stroke: #038048; stroke-width: 1.0;"/><text fill="#000000" font-family="sans-serif" font-size="11" lengthAdjust="spacingAndGlyphs" textLength="237" x="673.5" y="335.6245">Read(const uint32_t p_Address) : uint32_t</text><ellipse cx="664.5" cy="345.2188" fill="#84BE84" rx="3" ry="3" style="stroke: #038048; stroke-width: 1.0;"/><text fill="#000000" font-family="sans-serif" font-size="11" lengthAdjust="spacingAndGlyphs" textLength="687" x="673.5" y="348.4292">Write(const uint32_t &amp; p_Address, const uint32_t &amp; p_Value, std::bitset&lt;4&gt; p_ByteMask = std::bitset&lt;4&gt;("1111")) : void</text><line style="stroke: #A80036; stroke-width: 1.5;" x1="654.5" x2="1365.5" y1="355.0234" y2="355.0234"/><ellipse cx="664.5" cy="366.0234" fill="none" rx="3" ry="3" style="stroke: #038048; stroke-width: 1.0;"/><text fill="#000000" font-family="sans-serif" font-size="11" lengthAdjust="spacingAndGlyphs" textLength="152" x="673.5" y="369.2339">BSS_ADDR : const uint32_t</text><ellipse cx="664.5" cy="378.8281" fill="none" rx="3" ry="3" style="stroke: #038048; stroke-width: 1.0;"/><text fill="#000000" font-family="sans-serif" font-size="11" lengthAdjust="spacingAndGlyphs" textLength="157" x="673.5" y="382.0386">DATA_ADDR : const uint32_t</text><ellipse cx="664.5" cy="391.6328" fill="none" rx="3" ry="3" style="stroke: #038048; stroke-width: 1.0;"/><text fill="#000000" font-family="sans-serif" font-size="11" lengthAdjust="spacingAndGlyphs" textLength="151" x="673.5" y="394.8433">END_ADDR : const uint32_t</text><ellipse cx="664.5" cy="404.4375" fill="none" rx="3" ry="3" style="stroke: #038048; stroke-width: 1.0;"/><text fill="#000000" font-family="sans-serif" font-size="11" lengthAdjust="spacingAndGlyphs" textLength="157" x="673.5" y="407.6479">HEAP_ADDR : const uint32_t</text><ellipse cx="664.5" cy="417.2422" fill="none" rx="3" ry="3" style="stroke: #038048; stroke-width: 1.0;"/><text fill="#000000" font-family="sans-serif" font-size="11" lengthAdjust="spacingAndGlyphs" textLength="164" x="673.5" y="420.4526">START_ADDR : const uint32_t</text><!--MD5=[cd062bdcc86890c9bc44b9089a82c341]
class C_0015664210890159755612--><rect fill="#FEFECE" filter="url(#fd0w9623h6ofq)" height="158.4375" id="C_0015664210890159755612" style="stroke: #A80036; stroke-width: 1.5;" width="772" x="187" y="8"/><ellipse cx="529.75" cy="24" fill="#ADD1B2" rx="11" ry="11" style="stroke: #A80036; stroke-width: 1.0;"/><path d="M532.7188,29.6406 Q532.1406,29.9375 531.5,30.0781 Q530.8594,30.2344 530.1563,30.2344 Q527.6563,30.2344 526.3281,28.5938 Q525.0156,26.9375 525.0156,23.8125 Q525.0156,20.6875 526.3281,19.0313 Q527.6563,17.375 530.1563,17.375 Q530.8594,17.375 531.5,17.5313 Q532.1563,17.6875 532.7188,17.9844 L532.7188,20.7031 Q532.0938,20.125 531.5,19.8594 Q530.9063,19.5781 530.2813,19.5781 Q528.9375,19.5781 528.25,20.6563 Q527.5625,21.7188 527.5625,23.8125 Q527.5625,25.9063 528.25,26.9844 Q528.9375,28.0469 530.2813,28.0469 Q530.9063,28.0469 531.5,27.7813 Q532.0938,27.5 532.7188,26.9219 L532.7188,29.6406 Z "/><text fill="#000000" font-family="sans-serif" font-size="12" lengthAdjust="spacingAndGlyphs" textLength="78" x="550.25" y="28.1543">DataMemory</text><line style="stroke: #A80036; stroke-width: 1.5;" x1="188" x2="958" y1="40" y2="40"/><ellipse cx="198" cy="51" fill="#84BE84" rx="3" ry="3" style="stroke: #038048; stroke-width: 1.0;"/><text fill="#000000" font-family="sans-serif" font-size="11" lengthAdjust="spacingAndGlyphs" textLength="350" x="207" y="54.2104">DataMemory(std::unique_ptr&lt;Segmentation&gt; &amp; p_Seg) : void</text><line style="stroke: #A80036; stroke-width: 1.0; stroke-dasharray: 1.0,2.0;" x1="188" x2="958" y1="60.8047" y2="60.8047"/><rect fill="#F24D5C" height="6" style="stroke: #C82930; stroke-width: 1.0;" width="6" x="195" y="68.8047"/><text fill="#000000" font-family="sans-serif" font-size="11" lengthAdjust="spacingAndGlyphs" textLength="296" x="207" y="75.0151">GetTrailingZero(std::bitset&lt;4&gt; p_ByteMask) : size_t</text><rect fill="#F24D5C" height="6" style="stroke: #C82930; stroke-width: 1.0;" width="6" x="195" y="81.6094"/><text fill="#000000" font-family="sans-serif" font-size="11" lengthAdjust="spacingAndGlyphs" textLength="413" x="207" y="87.8198">Load(int32_t p_Addr, std::bitset&lt;4&gt; p_ByteMask, bool SignExt) : uint32_t</text><ellipse cx="198" cy="97.4141" fill="#84BE84" rx="3" ry="3" style="stroke: #038048; stroke-width: 1.0;"/><text fill="#000000" font-family="sans-serif" font-size="11" lengthAdjust="spacingAndGlyphs" textLength="746" x="207" y="100.6245">Operate(MEM_RW MemRW, bool SignExt, std::bitset&lt;4&gt; ByteMask, uint32_t p_AlignedAddr, int32_t p_Imm) : std::optional&lt;uint32_t&gt;</text><rect fill="#F24D5C" height="6" style="stroke: #C82930; stroke-width: 1.0;" width="6" x="195" y="107.2188"/><text fill="#000000" font-family="sans-serif" font-size="11" lengthAdjust="spacingAndGlyphs" textLength="504" x="207" y="113.4292">Store(uint32_t p_AlignedAddr, std::bitset&lt;4&gt; p_ByteMask, int32_t p_Imm) : std::nullopt_t</text><line style="stroke: #A80036; stroke-width: 1.5;" x1="188" x2="958" y1="120.0234" y2="120.0234"/><rect fill="none" height="6" style="stroke: #C82930; stroke-width: 1.0;" width="6" x="195" y="128.0234"/><text fill="#000000" font-family="sans-serif" font-size="11" lengthAdjust="spacingAndGlyphs" textLength="83" x="207" y="134.2339">addr : uint32_t</text><rect fill="none" height="6" style="stroke: #C82930; stroke-width: 1.0;" width="6" x="195" y="140.8281"/><text fill="#000000" font-family="sans-serif" font-size="11" lengthAdjust="spacingAndGlyphs" textLength="75" x="207" y="147.0386">imm : int32_t</text><ellipse cx="198" cy="156.6328" fill="none" rx="3" ry="3" style="stroke: #038048; stroke-width: 1.0;"/><text fill="#000000" font-family="sans-serif" font-size="11" lengthAdjust="spacingAndGlyphs" textLength="216" x="207" y="159.8433">seg : std::unique_ptr&lt;Segmentation&gt;</text><!--MD5=[309b831604bf9681828d8b320c4c923c]
reverse link C_0018167716232135348682 to C_0015323669539243454141--><path d="M130.54,139.34 C175.91,184.52 241.17,249.52 283.58,291.75 " fill="none" id="C_0018167716232135348682&lt;-C_0015323669539243454141" style="stroke: #A80036; stroke-width: 1.0;"/><polygon fill="#FFFFFF" points="121.18,130.01,122.6107,137.0778,129.685,138.4755,128.2543,131.4077,121.18,130.01" style="stroke: #A80036; stroke-width: 1.0;"/><ellipse cx="209" cy="205.0664" fill="none" rx="3" ry="3" style="stroke: #038048; stroke-width: 1.0;"/><text fill="#000000" font-family="sans-serif" font-size="13" lengthAdjust="spacingAndGlyphs" textLength="51" x="216" y="209.0669">MemRW</text><!--MD5=[235609dff0a42a8da5d5bf2dc3138ebb]
reverse link C_0013021121252725846004 to C_0004957594941363761658--><path d="M1027.84,157.89 C1019.33,169.77 1011.93,182.62 1007,196 C1001.58,210.73 999.13,226.96 998.48,242.95 " fill="none" id="C_0013021121252725846004&lt;-C_0004957594941363761658" style="stroke: #A80036; stroke-width: 1.0; stroke-dasharray: 7.0,7.0;"/><polygon fill="#A80036" points="1031.02,153.56,1022.4699,158.4482,1028.0613,157.5907,1028.9189,163.1821,1031.02,153.56" style="stroke: #A80036; stroke-width: 1.0;"/><ellipse cx="1013" cy="205.0664" fill="none" rx="3" ry="3" style="stroke: #038048; stroke-width: 1.0;"/><text fill="#000000" font-family="sans-serif" font-size="13" lengthAdjust="spacingAndGlyphs" textLength="52" x="1020" y="209.0669">«friend»</text><!--MD5=[235609dff0a42a8da5d5bf2dc3138ebb]
reverse link C_0013021121252725846004 to C_0004957594941363761658--><path d="M1087.83,173.64 C1084.97,187 1081.42,200.52 1077,213 C1073.48,222.96 1069.19,233.07 1064.49,242.99 " fill="none" id="C_0013021121252725846004&lt;-C_0004957594941363761658-1" style="stroke: #A80036; stroke-width: 1.0;"/><polygon fill="none" points="1081.02,171.94,1091.64,153.61,1094.77,174.56,1081.02,171.94" style="stroke: #A80036; stroke-width: 1.0;"/><!--MD5=[1efb1208edac8e8d11d925fb85c31324]
link C_0015664210890159755612 to C_0015323669539243454141--><path d="M494.51,166.17 C454.17,206.35 406.4,253.93 372.04,288.14 " fill="none" id="C_0015664210890159755612-&gt;C_0015323669539243454141" style="stroke: #A80036; stroke-width: 1.0; stroke-dasharray: 7.0,7.0;"/><polygon fill="#A80036" points="368.34,291.83,377.5395,288.313,371.8827,288.3016,371.8941,282.6448,368.34,291.83" style="stroke: #A80036; stroke-width: 1.0;"/><!--MD5=[1eb3407b5134939d86968e94989e4676]
reverse link C_0015664210890159755612 to C_0004957594941363761658--><path d="M723.11,172.5 C763.4,195.18 807.13,219.8 848.03,242.82 " fill="none" id="C_0015664210890159755612&lt;-C_0004957594941363761658" style="stroke: #A80036; stroke-width: 1.0;"/><polygon fill="#FFFFFF" points="711.57,166,714.8388,172.4277,722.0293,171.8825,718.7605,165.4548,711.57,166" style="stroke: #A80036; stroke-width: 1.0;"/><ellipse cx="798" cy="205.0664" fill="none" rx="3" ry="3" style="stroke: #038048; stroke-width: 1.0;"/><text fill="#000000" font-family="sans-serif" font-size="13" lengthAdjust="spacingAndGlyphs" textLength="23" x="805" y="209.0669">seg</text><!--MD5=[3fb3f22a848ba0d8c73c61859b729f4a]
@startuml
enum "MEM_RW" as C_0015323669539243454141
enum C_0015323669539243454141 {
NOP
READ
WRITE
}
class "MemorySignal" as C_0018167716232135348682
class C_0018167716232135348682 {
__
+MemRW : MEM_RW
+MemSize : MEM_SIZE
+SignExt : bool
}
class "MainMemory" as C_0013021121252725846004
class C_0013021121252725846004 {
+MainMemory() : void
+~MainMemory() : void
..
+Clear() : void
__
-PHY_HIGH_ADDR : const uint32_t
-PHY_LOW_ADDR : const uint32_t
{static} #Storage : std::vector<uint32_t>
}
class "Segmentation" as C_0004957594941363761658
class C_0004957594941363761658 {
+Segmentation(uint32_t p_startAddr, uint32_t p_endAddr, uint32_t p_textLength) : void
..
-AddrTranslate(const uint32_t p_Address) : uint32_t
-EndianceToggle(uint32_t p_Data) : uint32_t
+Read(const uint32_t p_Address) : uint32_t
+Write(const uint32_t & p_Address, const uint32_t & p_Value, std::bitset<4> p_ByteMask = std::bitset<4>("1111")) : void
__
+BSS_ADDR : const uint32_t
+DATA_ADDR : const uint32_t
+END_ADDR : const uint32_t
+HEAP_ADDR : const uint32_t
+START_ADDR : const uint32_t
}
class "DataMemory" as C_0015664210890159755612
class C_0015664210890159755612 {
+DataMemory(std::unique_ptr<Segmentation> & p_Seg) : void
..
-GetTrailingZero(std::bitset<4> p_ByteMask) : size_t
-Load(int32_t p_Addr, std::bitset<4> p_ByteMask, bool SignExt) : uint32_t
+Operate(MEM_RW MemRW, bool SignExt, std::bitset<4> ByteMask, uint32_t p_AlignedAddr, int32_t p_Imm) : std::optional<uint32_t>
-Store(uint32_t p_AlignedAddr, std::bitset<4> p_ByteMask, int32_t p_Imm) : std::nullopt_t
__
-addr : uint32_t
-imm : int32_t
+seg : std::unique_ptr<Segmentation>
}
C_0018167716232135348682 o- - C_0015323669539243454141 : +MemRW
C_0013021121252725846004 <.. C_0004957594941363761658 : +<<friend>>
C_0013021121252725846004 <|- - C_0004957594941363761658
C_0015664210890159755612 ..> C_0015323669539243454141
C_0015664210890159755612 o- - C_0004957594941363761658 : +seg

@enduml

PlantUML version 1.2020.02(Sun Mar 01 18:22:07 CST 2020)
(GPL source distribution)
Java Runtime: OpenJDK Runtime Environment
JVM: OpenJDK 64-Bit Server VM
Java Version: 21.0.9+10-Ubuntu-124.04
Operating System: Linux
Default Encoding: UTF-8
Language: en
Country: null
--></g></svg>