<?xml version="1.0" encoding="UTF-8" standalone="no"?><svg xmlns="http://www.w3.org/2000/svg" xmlns:xlink="http://www.w3.org/1999/xlink" contentScriptType="application/ecmascript" contentStyleType="text/css" height="259px" preserveAspectRatio="none" style="width:902px;height:259px;" version="1.1" viewBox="0 0 902 259" width="902px" zoomAndPan="magnify"><defs><filter height="300%" id="f12yh1ff8lzpy7" width="300%" x="-1" y="-1"><feGaussianBlur result="blurOut" stdDeviation="2.0"/><feColorMatrix in="blurOut" result="blurOut2" type="matrix" values="0 0 0 0 0 0 0 0 0 0 0 0 0 0 0 0 0 0 .4 0"/><feOffset dx="4.0" dy="4.0" in="blurOut2" result="blurOut3"/><feBlend in="SourceGraphic" in2="blurOut3" mode="normal"/></filter></defs><g><!--MD5=[9d370003c102a980234a36270aa27a8e]
class C_0002877520035885545864--><rect fill="#FEFECE" filter="url(#f12yh1ff8lzpy7)" height="107.2188" id="C_0002877520035885545864" style="stroke: #A80036; stroke-width: 1.5;" width="249" x="300" y="8"/><ellipse cx="389.25" cy="24" fill="#ADD1B2" rx="11" ry="11" style="stroke: #A80036; stroke-width: 1.0;"/><path d="M392.2188,29.6406 Q391.6406,29.9375 391,30.0781 Q390.3594,30.2344 389.6563,30.2344 Q387.1563,30.2344 385.8281,28.5938 Q384.5156,26.9375 384.5156,23.8125 Q384.5156,20.6875 385.8281,19.0313 Q387.1563,17.375 389.6563,17.375 Q390.3594,17.375 391,17.5313 Q391.6563,17.6875 392.2188,17.9844 L392.2188,20.7031 Q391.5938,20.125 391,19.8594 Q390.4063,19.5781 389.7813,19.5781 Q388.4375,19.5781 387.75,20.6563 Q387.0625,21.7188 387.0625,23.8125 Q387.0625,25.9063 387.75,26.9844 Q388.4375,28.0469 389.7813,28.0469 Q390.4063,28.0469 391,27.7813 Q391.5938,27.5 392.2188,26.9219 L392.2188,29.6406 Z "/><text fill="#000000" font-family="sans-serif" font-size="12" lengthAdjust="spacingAndGlyphs" textLength="62" x="409.75" y="28.1543">BaseError</text><line style="stroke: #A80036; stroke-width: 1.5;" x1="301" x2="548" y1="40" y2="40"/><ellipse cx="311" cy="51" fill="#84BE84" rx="3" ry="3" style="stroke: #038048; stroke-width: 1.0;"/><text fill="#000000" font-family="sans-serif" font-size="11" lengthAdjust="spacingAndGlyphs" textLength="223" x="320" y="54.2104">BaseError(std::string _message) : void</text><line style="stroke: #A80036; stroke-width: 1.0; stroke-dasharray: 1.0,2.0;" x1="301" x2="548" y1="60.8047" y2="60.8047"/><ellipse cx="311" cy="71.8047" fill="#84BE84" rx="3" ry="3" style="stroke: #038048; stroke-width: 1.0;"/><text fill="#000000" font-family="sans-serif" font-size="11" lengthAdjust="spacingAndGlyphs" textLength="161" x="320" y="75.0151">ShowMessage() : std::string</text><line style="stroke: #A80036; stroke-width: 1.5;" x1="301" x2="548" y1="81.6094" y2="81.6094"/><ellipse cx="311" cy="92.6094" fill="none" rx="3" ry="3" style="stroke: #038048; stroke-width: 1.0;"/><text fill="#000000" font-family="sans-serif" font-size="11" lengthAdjust="spacingAndGlyphs" textLength="193" x="320" y="95.8198">ExceptionName : const std::string</text><ellipse cx="311" cy="105.4141" fill="none" rx="3" ry="3" style="stroke: #038048; stroke-width: 1.0;"/><text fill="#000000" font-family="sans-serif" font-size="11" lengthAdjust="spacingAndGlyphs" textLength="124" x="320" y="108.6245">message : std::string</text><!--MD5=[0aa7652011ced8b01d8760a70b5d7199]
class C_0003868659132226776124--><rect fill="#FEFECE" filter="url(#f12yh1ff8lzpy7)" height="73.6094" id="C_0003868659132226776124" style="stroke: #A80036; stroke-width: 1.5;" width="251" x="6" y="175"/><ellipse cx="94.25" cy="191" fill="#ADD1B2" rx="11" ry="11" style="stroke: #A80036; stroke-width: 1.0;"/><path d="M97.2188,196.6406 Q96.6406,196.9375 96,197.0781 Q95.3594,197.2344 94.6563,197.2344 Q92.1563,197.2344 90.8281,195.5938 Q89.5156,193.9375 89.5156,190.8125 Q89.5156,187.6875 90.8281,186.0313 Q92.1563,184.375 94.6563,184.375 Q95.3594,184.375 96,184.5313 Q96.6563,184.6875 97.2188,184.9844 L97.2188,187.7031 Q96.5938,187.125 96,186.8594 Q95.4063,186.5781 94.7813,186.5781 Q93.4375,186.5781 92.75,187.6563 Q92.0625,188.7188 92.0625,190.8125 Q92.0625,192.9063 92.75,193.9844 Q93.4375,195.0469 94.7813,195.0469 Q95.4063,195.0469 96,194.7813 Q96.5938,194.5 97.2188,193.9219 L97.2188,196.6406 Z "/><text fill="#000000" font-family="sans-serif" font-size="12" lengthAdjust="spacingAndGlyphs" textLength="66" x="114.75" y="195.1543">ValueError</text><line style="stroke: #A80036; stroke-width: 1.5;" x1="7" x2="256" y1="207" y2="207"/><ellipse cx="17" cy="218" fill="#84BE84" rx="3" ry="3" style="stroke: #038048; stroke-width: 1.0;"/><text fill="#000000" font-family="sans-serif" font-size="11" lengthAdjust="spacingAndGlyphs" textLength="225" x="26" y="221.2104">ValueError(std::string _message) : void</text><line style="stroke: #A80036; stroke-width: 1.5;" x1="7" x2="256" y1="227.8047" y2="227.8047"/><ellipse cx="17" cy="238.8047" fill="none" rx="3" ry="3" style="stroke: #038048; stroke-width: 1.0;"/><text fill="#000000" font-family="sans-serif" font-size="11" lengthAdjust="spacingAndGlyphs" textLength="193" x="26" y="242.0151">ExceptionName : const std::string</text><!--MD5=[cc954a92f55a1e01d8c273df060ed1f2]
class C_0017253954068898896589--><rect fill="#FEFECE" filter="url(#f12yh1ff8lzpy7)" height="73.6094" id="C_0017253954068898896589" style="stroke: #A80036; stroke-width: 1.5;" width="265" x="292" y="175"/><ellipse cx="380.75" cy="191" fill="#ADD1B2" rx="11" ry="11" style="stroke: #A80036; stroke-width: 1.0;"/><path d="M383.7188,196.6406 Q383.1406,196.9375 382.5,197.0781 Q381.8594,197.2344 381.1563,197.2344 Q378.6563,197.2344 377.3281,195.5938 Q376.0156,193.9375 376.0156,190.8125 Q376.0156,187.6875 377.3281,186.0313 Q378.6563,184.375 381.1563,184.375 Q381.8594,184.375 382.5,184.5313 Q383.1563,184.6875 383.7188,184.9844 L383.7188,187.7031 Q383.0938,187.125 382.5,186.8594 Q381.9063,186.5781 381.2813,186.5781 Q379.9375,186.5781 379.25,187.6563 Q378.5625,188.7188 378.5625,190.8125 Q378.5625,192.9063 379.25,193.9844 Q379.9375,195.0469 381.2813,195.0469 Q381.9063,195.0469 382.5,194.7813 Q383.0938,194.5 383.7188,193.9219 L383.7188,196.6406 Z "/><text fill="#000000" font-family="sans-serif" font-size="12" lengthAdjust="spacingAndGlyphs" textLength="79" x="401.25" y="195.1543">MemoryError</text><line style="stroke: #A80036; stroke-width: 1.5;" x1="293" x2="556" y1="207" y2="207"/><ellipse cx="303" cy="218" fill="#84BE84" rx="3" ry="3" style="stroke: #038048; stroke-width: 1.0;"/><text fill="#000000" font-family="sans-serif" font-size="11" lengthAdjust="spacingAndGlyphs" textLength="239" x="312" y="221.2104">MemoryError(std::string _message) : void</text><line style="stroke: #A80036; stroke-width: 1.5;" x1="293" x2="556" y1="227.8047" y2="227.8047"/><ellipse cx="303" cy="238.8047" fill="none" rx="3" ry="3" style="stroke: #038048; stroke-width: 1.0;"/><text fill="#000000" font-family="sans-serif" font-size="11" lengthAdjust="spacingAndGlyphs" textLength="193" x="312" y="242.0151">ExceptionName : const std::string</text><!--MD5=[56106d95b8909e8508974513f1f781eb]
class C_0018414010278071789712--><rect fill="#FEFECE" filter="url(#f12yh1ff8lzpy7)" height="73.6094" id="C_0018414010278071789712" style="stroke: #A80036; stroke-width: 1.5;" width="299" x="592" y="175"/><ellipse cx="677.75" cy="191" fill="#ADD1B2" rx="11" ry="11" style="stroke: #A80036; stroke-width: 1.0;"/><path d="M680.7188,196.6406 Q680.1406,196.9375 679.5,197.0781 Q678.8594,197.2344 678.1563,197.2344 Q675.6563,197.2344 674.3281,195.5938 Q673.0156,193.9375 673.0156,190.8125 Q673.0156,187.6875 674.3281,186.0313 Q675.6563,184.375 678.1563,184.375 Q678.8594,184.375 679.5,184.5313 Q680.1563,184.6875 680.7188,184.9844 L680.7188,187.7031 Q680.0938,187.125 679.5,186.8594 Q678.9063,186.5781 678.2813,186.5781 Q676.9375,186.5781 676.25,187.6563 Q675.5625,188.7188 675.5625,190.8125 Q675.5625,192.9063 676.25,193.9844 Q676.9375,195.0469 678.2813,195.0469 Q678.9063,195.0469 679.5,194.7813 Q680.0938,194.5 680.7188,193.9219 L680.7188,196.6406 Z "/><text fill="#000000" font-family="sans-serif" font-size="12" lengthAdjust="spacingAndGlyphs" textLength="119" x="698.25" y="195.1543">SegmentationError</text><line style="stroke: #A80036; stroke-width: 1.5;" x1="593" x2="890" y1="207" y2="207"/><ellipse cx="603" cy="218" fill="#84BE84" rx="3" ry="3" style="stroke: #038048; stroke-width: 1.0;"/><text fill="#000000" font-family="sans-serif" font-size="11" lengthAdjust="spacingAndGlyphs" textLength="273" x="612" y="221.2104">SegmentationError(std::string _message) : void</text><line style="stroke: #A80036; stroke-width: 1.5;" x1="593" x2="890" y1="227.8047" y2="227.8047"/><ellipse cx="603" cy="238.8047" fill="none" rx="3" ry="3" style="stroke: #038048; stroke-width: 1.0;"/><text fill="#000000" font-family="sans-serif" font-size="11" lengthAdjust="spacingAndGlyphs" textLength="193" x="612" y="242.0151">ExceptionName : const std::string</text><!--MD5=[0460add4d80562bf884409d2b84394c9]
reverse link C_0002877520035885545864 to C_0003868659132226776124--><path d="M302.69,124.24 C268.72,141.45 232.92,159.6 202.89,174.82 " fill="none" id="C_0002877520035885545864&lt;-C_0003868659132226776124" style="stroke: #A80036; stroke-width: 1.0;"/><polygon fill="none" points="299.78,117.86,320.79,115.06,306.11,130.35,299.78,117.86" style="stroke: #A80036; stroke-width: 1.0;"/><!--MD5=[3dbdb5778a1abf6e4c1ffd6600cafc49]
reverse link C_0002877520035885545864 to C_0017253954068898896589--><path d="M424.5,135.61 C424.5,149.19 424.5,162.83 424.5,174.69 " fill="none" id="C_0002877520035885545864&lt;-C_0017253954068898896589" style="stroke: #A80036; stroke-width: 1.0;"/><polygon fill="none" points="417.5,135.27,424.5,115.27,431.5,135.27,417.5,135.27" style="stroke: #A80036; stroke-width: 1.0;"/><!--MD5=[9c1458d7a9626f2f75f317458938d379]
reverse link C_0002877520035885545864 to C_0018414010278071789712--><path d="M555.02,123.64 C592.15,141.04 631.4,159.42 664.26,174.82 " fill="none" id="C_0002877520035885545864&lt;-C_0018414010278071789712" style="stroke: #A80036; stroke-width: 1.0;"/><polygon fill="none" points="551.85,129.89,536.71,115.06,557.79,117.21,551.85,129.89" style="stroke: #A80036; stroke-width: 1.0;"/><!--MD5=[5b86828c73259c5a57a67dcbc1260637]
@startuml
class "BaseError" as C_0002877520035885545864
class C_0002877520035885545864 {
+BaseError(std::string _message) : void
..
+ShowMessage() : std::string
__
+ExceptionName : const std::string
+message : std::string
}
class "ValueError" as C_0003868659132226776124
class C_0003868659132226776124 {
+ValueError(std::string _message) : void
__
+ExceptionName : const std::string
}
class "MemoryError" as C_0017253954068898896589
class C_0017253954068898896589 {
+MemoryError(std::string _message) : void
__
+ExceptionName : const std::string
}
class "SegmentationError" as C_0018414010278071789712
class C_0018414010278071789712 {
+SegmentationError(std::string _message) : void
__
+ExceptionName : const std::string
}
C_0002877520035885545864 <|- - C_0003868659132226776124
C_0002877520035885545864 <|- - C_0017253954068898896589
C_0002877520035885545864 <|- - C_0018414010278071789712

@enduml

PlantUML version 1.2020.02(Sun Mar 01 18:22:07 CST 2020)
(GPL source distribution)
Java Runtime: OpenJDK Runtime Environment
JVM: OpenJDK 64-Bit Server VM
Java Version: 21.0.9+10-Ubuntu-124.04
Operating System: Linux
Default Encoding: UTF-8
Language: en
Country: null
--></g></svg>