<?xml version="1.0" encoding="UTF-8" standalone="no"?><svg xmlns="http://www.w3.org/2000/svg" xmlns:xlink="http://www.w3.org/1999/xlink" contentScriptType="application/ecmascript" contentStyleType="text/css" height="496px" preserveAspectRatio="none" style="width:1283px;height:496px;" version="1.1" viewBox="0 0 1283 496" width="1283px" zoomAndPan="magnify"><defs><filter height="300%" id="f1k60u74dptwkp" width="300%" x="-1" y="-1"><feGaussianBlur result="blurOut" stdDeviation="2.0"/><feColorMatrix in="blurOut" result="blurOut2" type="matrix" values="0 0 0 0 0 0 0 0 0 0 0 0 0 0 0 0 0 0 .4 0"/><feOffset dx="4.0" dy="4.0" in="blurOut2" result="blurOut3"/><feBlend in="SourceGraphic" in2="blurOut3" mode="normal"/></filter></defs><g><!--MD5=[0d001d254163a07b2dd6ba0bfab79d41]
class C_0018167716232135348682--><rect fill="#FEFECE" filter="url(#f1k60u74dptwkp)" height="86.4141" id="C_0018167716232135348682" style="stroke: #A80036; stroke-width: 1.5;" width="146" x="270.5" y="399"/><ellipse cx="298.1" cy="415" fill="#ADD1B2" rx="11" ry="11" style="stroke: #A80036; stroke-width: 1.0;"/><path d="M301.0688,420.6406 Q300.4906,420.9375 299.85,421.0781 Q299.2094,421.2344 298.5063,421.2344 Q296.0063,421.2344 294.6781,419.5938 Q293.3656,417.9375 293.3656,414.8125 Q293.3656,411.6875 294.6781,410.0313 Q296.0063,408.375 298.5063,408.375 Q299.2094,408.375 299.85,408.5313 Q300.5063,408.6875 301.0688,408.9844 L301.0688,411.7031 Q300.4438,411.125 299.85,410.8594 Q299.2563,410.5781 298.6313,410.5781 Q297.2875,410.5781 296.6,411.6563 Q295.9125,412.7188 295.9125,414.8125 Q295.9125,416.9063 296.6,417.9844 Q297.2875,419.0469 298.6313,419.0469 Q299.2563,419.0469 299.85,418.7813 Q300.4438,418.5 301.0688,417.9219 L301.0688,420.6406 Z "/><text fill="#000000" font-family="sans-serif" font-size="12" lengthAdjust="spacingAndGlyphs" textLength="86" x="314.9" y="419.1543">MemorySignal</text><line style="stroke: #A80036; stroke-width: 1.5;" x1="271.5" x2="415.5" y1="431" y2="431"/><line style="stroke: #A80036; stroke-width: 1.5;" x1="271.5" x2="415.5" y1="439" y2="439"/><ellipse cx="281.5" cy="450" fill="none" rx="3" ry="3" style="stroke: #038048; stroke-width: 1.0;"/><text fill="#000000" font-family="sans-serif" font-size="11" lengthAdjust="spacingAndGlyphs" textLength="102" x="290.5" y="453.2104">MemRW : MEM_RW</text><ellipse cx="281.5" cy="462.8047" fill="none" rx="3" ry="3" style="stroke: #038048; stroke-width: 1.0;"/><text fill="#000000" font-family="sans-serif" font-size="11" lengthAdjust="spacingAndGlyphs" textLength="120" x="290.5" y="466.0151">MemSize : MEM_SIZE</text><ellipse cx="281.5" cy="475.6094" fill="none" rx="3" ry="3" style="stroke: #038048; stroke-width: 1.0;"/><text fill="#000000" font-family="sans-serif" font-size="11" lengthAdjust="spacingAndGlyphs" textLength="78" x="290.5" y="478.8198">SignExt : bool</text><!--MD5=[817d8be90ada5a0931dbbe4822c4f819]
class C_0006925079775282570320--><rect fill="#FEFECE" filter="url(#f1k60u74dptwkp)" height="73.6094" id="C_0006925079775282570320" style="stroke: #A80036; stroke-width: 1.5;" width="132" x="470.5" y="405"/><ellipse cx="485.5" cy="421" fill="#ADD1B2" rx="11" ry="11" style="stroke: #A80036; stroke-width: 1.0;"/><path d="M488.4688,426.6406 Q487.8906,426.9375 487.25,427.0781 Q486.6094,427.2344 485.9063,427.2344 Q483.4063,427.2344 482.0781,425.5938 Q480.7656,423.9375 480.7656,420.8125 Q480.7656,417.6875 482.0781,416.0313 Q483.4063,414.375 485.9063,414.375 Q486.6094,414.375 487.25,414.5313 Q487.9063,414.6875 488.4688,414.9844 L488.4688,417.7031 Q487.8438,417.125 487.25,416.8594 Q486.6563,416.5781 486.0313,416.5781 Q484.6875,416.5781 484,417.6563 Q483.3125,418.7188 483.3125,420.8125 Q483.3125,422.9063 484,423.9844 Q484.6875,425.0469 486.0313,425.0469 Q486.6563,425.0469 487.25,424.7813 Q487.8438,424.5 488.4688,423.9219 L488.4688,426.6406 Z "/><text fill="#000000" font-family="sans-serif" font-size="12" lengthAdjust="spacingAndGlyphs" textLength="100" x="499.5" y="425.1543">WriteBackSignal</text><line style="stroke: #A80036; stroke-width: 1.5;" x1="471.5" x2="601.5" y1="437" y2="437"/><line style="stroke: #A80036; stroke-width: 1.5;" x1="471.5" x2="601.5" y1="445" y2="445"/><ellipse cx="481.5" cy="456" fill="none" rx="3" ry="3" style="stroke: #038048; stroke-width: 1.0;"/><text fill="#000000" font-family="sans-serif" font-size="11" lengthAdjust="spacingAndGlyphs" textLength="98" x="490.5" y="459.2104">MemToReg : bool</text><ellipse cx="481.5" cy="468.8047" fill="none" rx="3" ry="3" style="stroke: #038048; stroke-width: 1.0;"/><text fill="#000000" font-family="sans-serif" font-size="11" lengthAdjust="spacingAndGlyphs" textLength="85" x="490.5" y="472.0151">RegWrite : bool</text><!--MD5=[c81f13ebb7b277af22081e70f98f55b4]
class C_0014310963434085330856--><rect fill="#FEFECE" filter="url(#f1k60u74dptwkp)" height="112.0234" id="C_0014310963434085330856" style="stroke: #A80036; stroke-width: 1.5;" width="171" x="258" y="210"/><ellipse cx="297.3" cy="226" fill="#ADD1B2" rx="11" ry="11" style="stroke: #A80036; stroke-width: 1.0;"/><path d="M300.2688,231.6406 Q299.6906,231.9375 299.05,232.0781 Q298.4094,232.2344 297.7063,232.2344 Q295.2063,232.2344 293.8781,230.5938 Q292.5656,228.9375 292.5656,225.8125 Q292.5656,222.6875 293.8781,221.0313 Q295.2063,219.375 297.7063,219.375 Q298.4094,219.375 299.05,219.5313 Q299.7063,219.6875 300.2688,219.9844 L300.2688,222.7031 Q299.6438,222.125 299.05,221.8594 Q298.4563,221.5781 297.8313,221.5781 Q296.4875,221.5781 295.8,222.6563 Q295.1125,223.7188 295.1125,225.8125 Q295.1125,227.9063 295.8,228.9844 Q296.4875,230.0469 297.8313,230.0469 Q298.4563,230.0469 299.05,229.7813 Q299.6438,229.5 300.2688,228.9219 L300.2688,231.6406 Z "/><text fill="#000000" font-family="sans-serif" font-size="12" lengthAdjust="spacingAndGlyphs" textLength="85" x="316.7" y="230.1543">EX_MEM_Data</text><line style="stroke: #A80036; stroke-width: 1.5;" x1="259" x2="428" y1="242" y2="242"/><line style="stroke: #A80036; stroke-width: 1.5;" x1="259" x2="428" y1="250" y2="250"/><ellipse cx="269" cy="261" fill="none" rx="3" ry="3" style="stroke: #038048; stroke-width: 1.0;"/><text fill="#000000" font-family="sans-serif" font-size="11" lengthAdjust="spacingAndGlyphs" textLength="113" x="278" y="264.2104">alu_result : uint32_t</text><ellipse cx="269" cy="273.8047" fill="none" rx="3" ry="3" style="stroke: #038048; stroke-width: 1.0;"/><text fill="#000000" font-family="sans-serif" font-size="11" lengthAdjust="spacingAndGlyphs" textLength="145" x="278" y="277.0151">mem_ctrl : MemorySignal</text><ellipse cx="269" cy="286.6094" fill="none" rx="3" ry="3" style="stroke: #038048; stroke-width: 1.0;"/><text fill="#000000" font-family="sans-serif" font-size="11" lengthAdjust="spacingAndGlyphs" textLength="107" x="278" y="289.8198">rd : std::bitset&lt;5&gt;</text><ellipse cx="269" cy="299.4141" fill="none" rx="3" ry="3" style="stroke: #038048; stroke-width: 1.0;"/><text fill="#000000" font-family="sans-serif" font-size="11" lengthAdjust="spacingAndGlyphs" textLength="142" x="278" y="302.6245">wb_ctrl : WriteBackSignal</text><ellipse cx="269" cy="312.2188" fill="none" rx="3" ry="3" style="stroke: #038048; stroke-width: 1.0;"/><text fill="#000000" font-family="sans-serif" font-size="11" lengthAdjust="spacingAndGlyphs" textLength="116" x="278" y="315.4292">write_data : uint32_t</text><!--MD5=[9a76680565b0eddf601f77ed793d0fe6]
class C_0001654346844842289037--><rect fill="#FEFECE" filter="url(#f1k60u74dptwkp)" height="99.2188" id="C_0001654346844842289037" style="stroke: #A80036; stroke-width: 1.5;" width="232" x="464.5" y="216.5"/><ellipse cx="531.75" cy="232.5" fill="#ADD1B2" rx="11" ry="11" style="stroke: #A80036; stroke-width: 1.0;"/><path d="M534.7188,238.1406 Q534.1406,238.4375 533.5,238.5781 Q532.8594,238.7344 532.1563,238.7344 Q529.6563,238.7344 528.3281,237.0938 Q527.0156,235.4375 527.0156,232.3125 Q527.0156,229.1875 528.3281,227.5313 Q529.6563,225.875 532.1563,225.875 Q532.8594,225.875 533.5,226.0313 Q534.1563,226.1875 534.7188,226.4844 L534.7188,229.2031 Q534.0938,228.625 533.5,228.3594 Q532.9063,228.0781 532.2813,228.0781 Q530.9375,228.0781 530.25,229.1563 Q529.5625,230.2188 529.5625,232.3125 Q529.5625,234.4063 530.25,235.4844 Q530.9375,236.5469 532.2813,236.5469 Q532.9063,236.5469 533.5,236.2813 Q534.0938,236 534.7188,235.4219 L534.7188,238.1406 Z "/><text fill="#000000" font-family="sans-serif" font-size="12" lengthAdjust="spacingAndGlyphs" textLength="89" x="552.25" y="236.6543">MEM_WB_Data</text><line style="stroke: #A80036; stroke-width: 1.5;" x1="465.5" x2="695.5" y1="248.5" y2="248.5"/><line style="stroke: #A80036; stroke-width: 1.5;" x1="465.5" x2="695.5" y1="256.5" y2="256.5"/><ellipse cx="475.5" cy="267.5" fill="none" rx="3" ry="3" style="stroke: #038048; stroke-width: 1.0;"/><text fill="#000000" font-family="sans-serif" font-size="11" lengthAdjust="spacingAndGlyphs" textLength="113" x="484.5" y="270.7104">alu_result : uint32_t</text><ellipse cx="475.5" cy="280.3047" fill="none" rx="3" ry="3" style="stroke: #038048; stroke-width: 1.0;"/><text fill="#000000" font-family="sans-serif" font-size="11" lengthAdjust="spacingAndGlyphs" textLength="206" x="484.5" y="283.5151">mem_data : std::optional&lt;uint32_t&gt;</text><ellipse cx="475.5" cy="293.1094" fill="none" rx="3" ry="3" style="stroke: #038048; stroke-width: 1.0;"/><text fill="#000000" font-family="sans-serif" font-size="11" lengthAdjust="spacingAndGlyphs" textLength="107" x="484.5" y="296.3198">rd : std::bitset&lt;5&gt;</text><ellipse cx="475.5" cy="305.9141" fill="none" rx="3" ry="3" style="stroke: #038048; stroke-width: 1.0;"/><text fill="#000000" font-family="sans-serif" font-size="11" lengthAdjust="spacingAndGlyphs" textLength="142" x="484.5" y="309.1245">wb_ctrl : WriteBackSignal</text><!--MD5=[499ce056916eac4485d94c9165ea4fa4]
class C_0010212726530892487794--><rect fill="#FEFECE" filter="url(#f1k60u74dptwkp)" height="124.8281" id="C_0010212726530892487794" style="stroke: #A80036; stroke-width: 1.5;" width="263" x="6" y="8"/><ellipse cx="87.25" cy="24" fill="#ADD1B2" rx="11" ry="11" style="stroke: #A80036; stroke-width: 1.0;"/><path d="M90.2188,29.6406 Q89.6406,29.9375 89,30.0781 Q88.3594,30.2344 87.6563,30.2344 Q85.1563,30.2344 83.8281,28.5938 Q82.5156,26.9375 82.5156,23.8125 Q82.5156,20.6875 83.8281,19.0313 Q85.1563,17.375 87.6563,17.375 Q88.3594,17.375 89,17.5313 Q89.6563,17.6875 90.2188,17.9844 L90.2188,20.7031 Q89.5938,20.125 89,19.8594 Q88.4063,19.5781 87.7813,19.5781 Q86.4375,19.5781 85.75,20.6563 Q85.0625,21.7188 85.0625,23.8125 Q85.0625,25.9063 85.75,26.9844 Q86.4375,28.0469 87.7813,28.0469 Q88.4063,28.0469 89,27.7813 Q89.5938,27.5 90.2188,26.9219 L90.2188,29.6406 Z "/><text fill="#000000" font-family="sans-serif" font-size="12" lengthAdjust="spacingAndGlyphs" textLength="92" x="107.75" y="28.1543">CycleSnapshot</text><line style="stroke: #A80036; stroke-width: 1.5;" x1="7" x2="268" y1="40" y2="40"/><line style="stroke: #A80036; stroke-width: 1.5;" x1="7" x2="268" y1="48" y2="48"/><ellipse cx="17" cy="59" fill="none" rx="3" ry="3" style="stroke: #038048; stroke-width: 1.0;"/><text fill="#000000" font-family="sans-serif" font-size="11" lengthAdjust="spacingAndGlyphs" textLength="223" x="26" y="62.2104">EX_data : std::optional&lt;EX_MEM_Data&gt;</text><ellipse cx="17" cy="71.8047" fill="none" rx="3" ry="3" style="stroke: #038048; stroke-width: 1.0;"/><text fill="#000000" font-family="sans-serif" font-size="11" lengthAdjust="spacingAndGlyphs" textLength="206" x="26" y="75.0151">ID_data : std::optional&lt;ID_EX_Data&gt;</text><ellipse cx="17" cy="84.6094" fill="none" rx="3" ry="3" style="stroke: #038048; stroke-width: 1.0;"/><text fill="#000000" font-family="sans-serif" font-size="11" lengthAdjust="spacingAndGlyphs" textLength="199" x="26" y="87.8198">IF_data : std::optional&lt;IF_ID_Data&gt;</text><ellipse cx="17" cy="97.4141" fill="none" rx="3" ry="3" style="stroke: #038048; stroke-width: 1.0;"/><text fill="#000000" font-family="sans-serif" font-size="11" lengthAdjust="spacingAndGlyphs" textLength="237" x="26" y="100.6245">MEM_data : std::optional&lt;MEM_WB_Data&gt;</text><ellipse cx="17" cy="110.2188" fill="none" rx="3" ry="3" style="stroke: #038048; stroke-width: 1.0;"/><text fill="#000000" font-family="sans-serif" font-size="11" lengthAdjust="spacingAndGlyphs" textLength="198" x="26" y="113.4292">WB_data : std::optional&lt;WB_Data&gt;</text><ellipse cx="17" cy="123.0234" fill="none" rx="3" ry="3" style="stroke: #038048; stroke-width: 1.0;"/><text fill="#000000" font-family="sans-serif" font-size="11" lengthAdjust="spacingAndGlyphs" textLength="104" x="26" y="126.2339">cycle_number : int</text><!--MD5=[fdf339d81b7a36ce9bda772d3d5406f7]
class C_0008706486098366957267--><rect fill="#FEFECE" filter="url(#f1k60u74dptwkp)" height="73.6094" id="C_0008706486098366957267" style="stroke: #A80036; stroke-width: 1.5;" width="968" x="304.5" y="33.5"/><ellipse cx="737.25" cy="49.5" fill="#ADD1B2" rx="11" ry="11" style="stroke: #A80036; stroke-width: 1.0;"/><path d="M740.2188,55.1406 Q739.6406,55.4375 739,55.5781 Q738.3594,55.7344 737.6563,55.7344 Q735.1563,55.7344 733.8281,54.0938 Q732.5156,52.4375 732.5156,49.3125 Q732.5156,46.1875 733.8281,44.5313 Q735.1563,42.875 737.6563,42.875 Q738.3594,42.875 739,43.0313 Q739.6563,43.1875 740.2188,43.4844 L740.2188,46.2031 Q739.5938,45.625 739,45.3594 Q738.4063,45.0781 737.7813,45.0781 Q736.4375,45.0781 735.75,46.1563 Q735.0625,47.2188 735.0625,49.3125 Q735.0625,51.4063 735.75,52.4844 Q736.4375,53.5469 737.7813,53.5469 Q738.4063,53.5469 739,53.2813 Q739.5938,53 740.2188,52.4219 L740.2188,55.1406 Z "/><text fill="#000000" font-family="sans-serif" font-size="12" lengthAdjust="spacingAndGlyphs" textLength="94" x="757.75" y="53.6543">ForwardingUnit</text><line style="stroke: #A80036; stroke-width: 1.5;" x1="305.5" x2="1271.5" y1="65.5" y2="65.5"/><rect fill="#F24D5C" height="6" style="stroke: #C82930; stroke-width: 1.0;" width="6" x="312.5" y="73.5"/><text fill="#000000" font-family="sans-serif" font-size="11" lengthAdjust="spacingAndGlyphs" text-decoration="underline" textLength="942" x="324.5" y="79.7104">ALUForwardingSignal(uint8_t EX_rs, std::bitset&lt;5&gt; p_EX_MEM_rd, bool p_EX_MEM_RegWrite, std::bitset&lt;5&gt; p_MEM_WB_rd, bool p_MEM_WB_RegWrite) : std::bitset&lt;2&gt;</text><ellipse cx="315.5" cy="89.3047" fill="#84BE84" rx="3" ry="3" style="stroke: #038048; stroke-width: 1.0;"/><text fill="#000000" font-family="sans-serif" font-size="11" lengthAdjust="spacingAndGlyphs" text-decoration="underline" textLength="676" x="324.5" y="92.5151">ALUMux(std::bitset&lt;5&gt; p_rs, uint32_t p_op, const EX_MEM_Data &amp; EX_MEM, const MEM_WB_Data &amp; MEM_WB) : uint32_t</text><line style="stroke: #A80036; stroke-width: 1.5;" x1="305.5" x2="1271.5" y1="99.1094" y2="99.1094"/><!--MD5=[fd8b79d34c7ed80a5ad024f8a97bedf2]
reverse link C_0014310963434085330856 to C_0018167716232135348682--><path d="M343.5,335.2 C343.5,356.72 343.5,379.86 343.5,398.99 " fill="none" id="C_0014310963434085330856&lt;-C_0018167716232135348682" style="stroke: #A80036; stroke-width: 1.0;"/><polygon fill="#FFFFFF" points="343.5,322.05,339.5,328.05,343.5,334.05,347.5,328.05,343.5,322.05" style="stroke: #A80036; stroke-width: 1.0;"/><ellipse cx="349.5" cy="361.0664" fill="none" rx="3" ry="3" style="stroke: #038048; stroke-width: 1.0;"/><text fill="#000000" font-family="sans-serif" font-size="13" lengthAdjust="spacingAndGlyphs" textLength="61" x="356.5" y="365.0669">mem_ctrl</text><!--MD5=[4c88db000e77492a23a7db907caffbac]
reverse link C_0014310963434085330856 to C_0006925079775282570320--><path d="M414.23,330.77 C441.97,355.77 472.76,383.54 496.51,404.95 " fill="none" id="C_0014310963434085330856&lt;-C_0006925079775282570320" style="stroke: #A80036; stroke-width: 1.0;"/><polygon fill="#FFFFFF" points="404.57,322.05,406.3505,329.0378,413.4856,330.0819,411.7051,323.0941,404.57,322.05" style="stroke: #A80036; stroke-width: 1.0;"/><ellipse cx="458.5" cy="361.0664" fill="none" rx="3" ry="3" style="stroke: #038048; stroke-width: 1.0;"/><text fill="#000000" font-family="sans-serif" font-size="13" lengthAdjust="spacingAndGlyphs" textLength="44" x="465.5" y="365.0669">wb_ctrl</text><!--MD5=[c43870654773e62da69a2c02f3f2d923]
reverse link C_0001654346844842289037 to C_0006925079775282570320--><path d="M564.94,328.55 C558.48,354.08 551.21,382.81 545.64,404.85 " fill="none" id="C_0001654346844842289037&lt;-C_0006925079775282570320" style="stroke: #A80036; stroke-width: 1.0;"/><polygon fill="#FFFFFF" points="568.13,315.93,562.7813,320.7665,565.1885,327.5639,570.5372,322.7274,568.13,315.93" style="stroke: #A80036; stroke-width: 1.0;"/><ellipse cx="564.5" cy="361.0664" fill="none" rx="3" ry="3" style="stroke: #038048; stroke-width: 1.0;"/><text fill="#000000" font-family="sans-serif" font-size="13" lengthAdjust="spacingAndGlyphs" textLength="44" x="571.5" y="365.0669">wb_ctrl</text><!--MD5=[e785b80a004c8c6678b0b9175309243f]
reverse link C_0010212726530892487794 to C_0014310963434085330856--><path d="M212.89,142.32 C236.55,164.54 262.3,188.73 284.64,209.71 " fill="none" id="C_0010212726530892487794&lt;-C_0014310963434085330856" style="stroke: #A80036; stroke-width: 1.0;"/><polygon fill="#FFFFFF" points="203.25,133.26,204.8834,140.2837,211.995,141.4774,210.3616,134.4537,203.25,133.26" style="stroke: #A80036; stroke-width: 1.0;"/><ellipse cx="259.5" cy="172.0664" fill="none" rx="3" ry="3" style="stroke: #038048; stroke-width: 1.0;"/><text fill="#000000" font-family="sans-serif" font-size="13" lengthAdjust="spacingAndGlyphs" textLength="52" x="266.5" y="176.0669">EX_data</text><!--MD5=[00a6c6a7e9be0eec8c412eeb9d82bdfb]
reverse link C_0010212726530892487794 to C_0001654346844842289037--><path d="M281.28,134.3 C342.23,160.93 412.18,191.48 469.11,216.35 " fill="none" id="C_0010212726530892487794&lt;-C_0001654346844842289037" style="stroke: #A80036; stroke-width: 1.0;"/><polygon fill="#FFFFFF" points="269.22,129.03,273.119,135.0961,280.2181,133.8301,276.3191,127.764,269.22,129.03" style="stroke: #A80036; stroke-width: 1.0;"/><ellipse cx="392.5" cy="172.0664" fill="none" rx="3" ry="3" style="stroke: #038048; stroke-width: 1.0;"/><text fill="#000000" font-family="sans-serif" font-size="13" lengthAdjust="spacingAndGlyphs" textLength="66" x="399.5" y="176.0669">MEM_data</text><!--MD5=[f1b638c1948311ca8b4343bedb033104]
link C_0008706486098366957267 to C_0014310963434085330856--><path d="M691.51,107.63 C622.4,134.14 527.73,171.99 446.5,210 C442.32,211.96 438.07,214 433.79,216.1 " fill="none" id="C_0008706486098366957267-&gt;C_0014310963434085330856" style="stroke: #A80036; stroke-width: 1.0; stroke-dasharray: 7.0,7.0;"/><polygon fill="#A80036" points="429.14,218.4,438.9809,218.0031,433.6235,216.1868,435.4397,210.8295,429.14,218.4" style="stroke: #A80036; stroke-width: 1.0;"/><!--MD5=[ffbb92b4cedb6326c60b81b4821355d0]
link C_0008706486098366957267 to C_0001654346844842289037--><path d="M765.69,107.61 C750.54,129.96 729.29,158.4 706.5,180 C694.09,191.76 679.89,203.01 665.6,213.26 " fill="none" id="C_0008706486098366957267-&gt;C_0001654346844842289037" style="stroke: #A80036; stroke-width: 1.0; stroke-dasharray: 7.0,7.0;"/><polygon fill="#A80036" points="661.16,216.41,670.8112,214.4466,665.2325,213.5092,666.1699,207.9306,661.16,216.41" style="stroke: #A80036; stroke-width: 1.0;"/><!--MD5=[cc289e69052805d94d093c00e8ac476b]
@startuml
class "MemorySignal" as C_0018167716232135348682
class C_0018167716232135348682 {
__
+MemRW : MEM_RW
+MemSize : MEM_SIZE
+SignExt : bool
}
class "WriteBackSignal" as C_0006925079775282570320
class C_0006925079775282570320 {
__
+MemToReg : bool
+RegWrite : bool
}
class "EX_MEM_Data" as C_0014310963434085330856
class C_0014310963434085330856 {
__
+alu_result : uint32_t
+mem_ctrl : MemorySignal
+rd : std::bitset<5>
+wb_ctrl : WriteBackSignal
+write_data : uint32_t
}
class "MEM_WB_Data" as C_0001654346844842289037
class C_0001654346844842289037 {
__
+alu_result : uint32_t
+mem_data : std::optional<uint32_t>
+rd : std::bitset<5>
+wb_ctrl : WriteBackSignal
}
class "CycleSnapshot" as C_0010212726530892487794
class C_0010212726530892487794 {
__
+EX_data : std::optional<EX_MEM_Data>
+ID_data : std::optional<ID_EX_Data>
+IF_data : std::optional<IF_ID_Data>
+MEM_data : std::optional<MEM_WB_Data>
+WB_data : std::optional<WB_Data>
+cycle_number : int
}
class "ForwardingUnit" as C_0008706486098366957267
class C_0008706486098366957267 {
{static} -ALUForwardingSignal(uint8_t EX_rs, std::bitset<5> p_EX_MEM_rd, bool p_EX_MEM_RegWrite, std::bitset<5> p_MEM_WB_rd, bool p_MEM_WB_RegWrite) : std::bitset<2>
{static} +ALUMux(std::bitset<5> p_rs, uint32_t p_op, const EX_MEM_Data & EX_MEM, const MEM_WB_Data & MEM_WB) : uint32_t
__
}
C_0014310963434085330856 o- - C_0018167716232135348682 : +mem_ctrl
C_0014310963434085330856 o- - C_0006925079775282570320 : +wb_ctrl
C_0001654346844842289037 o- - C_0006925079775282570320 : +wb_ctrl
C_0010212726530892487794 o- - C_0014310963434085330856 : +EX_data
C_0010212726530892487794 o- - C_0001654346844842289037 : +MEM_data
C_0008706486098366957267 ..> C_0014310963434085330856
C_0008706486098366957267 ..> C_0001654346844842289037

@enduml

PlantUML version 1.2020.02(Sun Mar 01 18:22:07 CST 2020)
(GPL source distribution)
Java Runtime: OpenJDK Runtime Environment
JVM: OpenJDK 64-Bit Server VM
Java Version: 21.0.9+10-Ubuntu-124.04
Operating System: Linux
Default Encoding: UTF-8
Language: en
Country: null
--></g></svg>