<?xml version="1.0" encoding="UTF-8" standalone="no"?><svg xmlns="http://www.w3.org/2000/svg" xmlns:xlink="http://www.w3.org/1999/xlink" contentScriptType="application/ecmascript" contentStyleType="text/css" height="413px" preserveAspectRatio="none" style="width:892px;height:413px;" version="1.1" viewBox="0 0 892 413" width="892px" zoomAndPan="magnify"><defs><filter height="300%" id="fn3gfkoxby46e" width="300%" x="-1" y="-1"><feGaussianBlur result="blurOut" stdDeviation="2.0"/><feColorMatrix in="blurOut" result="blurOut2" type="matrix" values="0 0 0 0 0 0 0 0 0 0 0 0 0 0 0 0 0 0 .4 0"/><feOffset dx="4.0" dy="4.0" in="blurOut2" result="blurOut3"/><feBlend in="SourceGraphic" in2="blurOut3" mode="normal"/></filter></defs><g><!--MD5=[f200b29a4627f36bad6146faa5ebde4d]
class C_0013021121252725846004--><rect fill="#FEFECE" filter="url(#fn3gfkoxby46e)" height="132.8281" id="C_0013021121252725846004" style="stroke: #A80036; stroke-width: 1.5;" width="210" x="168.5" y="8"/><ellipse cx="230.75" cy="24" fill="#ADD1B2" rx="11" ry="11" style="stroke: #A80036; stroke-width: 1.0;"/><path d="M233.7188,29.6406 Q233.1406,29.9375 232.5,30.0781 Q231.8594,30.2344 231.1563,30.2344 Q228.6563,30.2344 227.3281,28.5938 Q226.0156,26.9375 226.0156,23.8125 Q226.0156,20.6875 227.3281,19.0313 Q228.6563,17.375 231.1563,17.375 Q231.8594,17.375 232.5,17.5313 Q233.1563,17.6875 233.7188,17.9844 L233.7188,20.7031 Q233.0938,20.125 232.5,19.8594 Q231.9063,19.5781 231.2813,19.5781 Q229.9375,19.5781 229.25,20.6563 Q228.5625,21.7188 228.5625,23.8125 Q228.5625,25.9063 229.25,26.9844 Q229.9375,28.0469 231.2813,28.0469 Q231.9063,28.0469 232.5,27.7813 Q233.0938,27.5 233.7188,26.9219 L233.7188,29.6406 Z "/><text fill="#000000" font-family="sans-serif" font-size="12" lengthAdjust="spacingAndGlyphs" textLength="77" x="251.25" y="28.1543">MainMemory</text><line style="stroke: #A80036; stroke-width: 1.5;" x1="169.5" x2="377.5" y1="40" y2="40"/><ellipse cx="179.5" cy="51" fill="#84BE84" rx="3" ry="3" style="stroke: #038048; stroke-width: 1.0;"/><text fill="#000000" font-family="sans-serif" font-size="11" lengthAdjust="spacingAndGlyphs" textLength="114" x="188.5" y="54.2104">MainMemory() : void</text><ellipse cx="179.5" cy="63.8047" fill="#84BE84" rx="3" ry="3" style="stroke: #038048; stroke-width: 1.0;"/><text fill="#000000" font-family="sans-serif" font-size="11" lengthAdjust="spacingAndGlyphs" textLength="123" x="188.5" y="67.0151">~MainMemory() : void</text><line style="stroke: #A80036; stroke-width: 1.0; stroke-dasharray: 1.0,2.0;" x1="169.5" x2="377.5" y1="73.6094" y2="73.6094"/><ellipse cx="179.5" cy="84.6094" fill="#84BE84" rx="3" ry="3" style="stroke: #038048; stroke-width: 1.0;"/><text fill="#000000" font-family="sans-serif" font-size="11" lengthAdjust="spacingAndGlyphs" textLength="73" x="188.5" y="87.8198">Clear() : void</text><line style="stroke: #A80036; stroke-width: 1.5;" x1="169.5" x2="377.5" y1="94.4141" y2="94.4141"/><rect fill="none" height="6" style="stroke: #C82930; stroke-width: 1.0;" width="6" x="176.5" y="102.4141"/><text fill="#000000" font-family="sans-serif" font-size="11" lengthAdjust="spacingAndGlyphs" textLength="184" x="188.5" y="108.6245">PHY_HIGH_ADDR : const uint32_t</text><rect fill="none" height="6" style="stroke: #C82930; stroke-width: 1.0;" width="6" x="176.5" y="115.2188"/><text fill="#000000" font-family="sans-serif" font-size="11" lengthAdjust="spacingAndGlyphs" textLength="180" x="188.5" y="121.4292">PHY_LOW_ADDR : const uint32_t</text><polygon fill="none" points="179.5,126.0234,183.5,130.0234,179.5,134.0234,175.5,130.0234" style="stroke: #B38D22; stroke-width: 1.0;"/><text fill="#000000" font-family="sans-serif" font-size="11" lengthAdjust="spacingAndGlyphs" text-decoration="underline" textLength="174" x="188.5" y="134.2339">Storage : std::vector&lt;uint8_t&gt;</text><!--MD5=[e3c2fb45959a7b256317014ef8cf1573]
class C_0004957594941363761658--><rect fill="#FEFECE" filter="url(#fn3gfkoxby46e)" height="184.0469" id="C_0004957594941363761658" style="stroke: #A80036; stroke-width: 1.5;" width="713" x="6" y="218"/><ellipse cx="314.25" cy="234" fill="#ADD1B2" rx="11" ry="11" style="stroke: #A80036; stroke-width: 1.0;"/><path d="M317.2188,239.6406 Q316.6406,239.9375 316,240.0781 Q315.3594,240.2344 314.6563,240.2344 Q312.1563,240.2344 310.8281,238.5938 Q309.5156,236.9375 309.5156,233.8125 Q309.5156,230.6875 310.8281,229.0313 Q312.1563,227.375 314.6563,227.375 Q315.3594,227.375 316,227.5313 Q316.6563,227.6875 317.2188,227.9844 L317.2188,230.7031 Q316.5938,230.125 316,229.8594 Q315.4063,229.5781 314.7813,229.5781 Q313.4375,229.5781 312.75,230.6563 Q312.0625,231.7188 312.0625,233.8125 Q312.0625,235.9063 312.75,236.9844 Q313.4375,238.0469 314.7813,238.0469 Q315.4063,238.0469 316,237.7813 Q316.5938,237.5 317.2188,236.9219 L317.2188,239.6406 Z "/><text fill="#000000" font-family="sans-serif" font-size="12" lengthAdjust="spacingAndGlyphs" textLength="88" x="334.75" y="238.1543">Segmentation</text><line style="stroke: #A80036; stroke-width: 1.5;" x1="7" x2="718" y1="250" y2="250"/><ellipse cx="17" cy="261" fill="#84BE84" rx="3" ry="3" style="stroke: #038048; stroke-width: 1.0;"/><text fill="#000000" font-family="sans-serif" font-size="11" lengthAdjust="spacingAndGlyphs" textLength="483" x="26" y="264.2104">Segmentation(uint32_t p_startAddr, uint32_t p_endAddr, uint32_t p_textLength) : void</text><line style="stroke: #A80036; stroke-width: 1.0; stroke-dasharray: 1.0,2.0;" x1="7" x2="718" y1="270.8047" y2="270.8047"/><rect fill="#F24D5C" height="6" style="stroke: #C82930; stroke-width: 1.0;" width="6" x="14" y="278.8047"/><text fill="#000000" font-family="sans-serif" font-size="11" lengthAdjust="spacingAndGlyphs" textLength="289" x="26" y="285.0151">AddrTranslate(const uint32_t p_Address) : uint32_t</text><rect fill="#F24D5C" height="6" style="stroke: #C82930; stroke-width: 1.0;" width="6" x="14" y="291.6094"/><text fill="#000000" font-family="sans-serif" font-size="11" lengthAdjust="spacingAndGlyphs" textLength="242" x="26" y="297.8198">EndianceToggle(uint32_t p_Data) : uint32_t</text><ellipse cx="17" cy="307.4141" fill="#84BE84" rx="3" ry="3" style="stroke: #038048; stroke-width: 1.0;"/><text fill="#000000" font-family="sans-serif" font-size="11" lengthAdjust="spacingAndGlyphs" textLength="237" x="26" y="310.6245">Read(const uint32_t p_Address) : uint32_t</text><ellipse cx="17" cy="320.2188" fill="#84BE84" rx="3" ry="3" style="stroke: #038048; stroke-width: 1.0;"/><text fill="#000000" font-family="sans-serif" font-size="11" lengthAdjust="spacingAndGlyphs" textLength="687" x="26" y="323.4292">Write(const uint32_t &amp; p_Address, const uint32_t &amp; p_Value, std::bitset&lt;4&gt; p_ByteMask = std::bitset&lt;4&gt;("1111")) : void</text><line style="stroke: #A80036; stroke-width: 1.5;" x1="7" x2="718" y1="330.0234" y2="330.0234"/><ellipse cx="17" cy="341.0234" fill="none" rx="3" ry="3" style="stroke: #038048; stroke-width: 1.0;"/><text fill="#000000" font-family="sans-serif" font-size="11" lengthAdjust="spacingAndGlyphs" textLength="152" x="26" y="344.2339">BSS_ADDR : const uint32_t</text><ellipse cx="17" cy="353.8281" fill="none" rx="3" ry="3" style="stroke: #038048; stroke-width: 1.0;"/><text fill="#000000" font-family="sans-serif" font-size="11" lengthAdjust="spacingAndGlyphs" textLength="157" x="26" y="357.0386">DATA_ADDR : const uint32_t</text><ellipse cx="17" cy="366.6328" fill="none" rx="3" ry="3" style="stroke: #038048; stroke-width: 1.0;"/><text fill="#000000" font-family="sans-serif" font-size="11" lengthAdjust="spacingAndGlyphs" textLength="151" x="26" y="369.8433">END_ADDR : const uint32_t</text><ellipse cx="17" cy="379.4375" fill="none" rx="3" ry="3" style="stroke: #038048; stroke-width: 1.0;"/><text fill="#000000" font-family="sans-serif" font-size="11" lengthAdjust="spacingAndGlyphs" textLength="157" x="26" y="382.6479">HEAP_ADDR : const uint32_t</text><ellipse cx="17" cy="392.2422" fill="none" rx="3" ry="3" style="stroke: #038048; stroke-width: 1.0;"/><text fill="#000000" font-family="sans-serif" font-size="11" lengthAdjust="spacingAndGlyphs" textLength="164" x="26" y="395.4526">START_ADDR : const uint32_t</text><!--MD5=[776cda11e7bdb2d84439f4aafff6f64a]
class C_0002524744015807042576--><rect fill="#FEFECE" filter="url(#fn3gfkoxby46e)" height="81.6094" id="C_0002524744015807042576" style="stroke: #A80036; stroke-width: 1.5;" width="468" x="413.5" y="33.5"/><ellipse cx="585.75" cy="49.5" fill="#ADD1B2" rx="11" ry="11" style="stroke: #A80036; stroke-width: 1.0;"/><path d="M588.7188,55.1406 Q588.1406,55.4375 587.5,55.5781 Q586.8594,55.7344 586.1563,55.7344 Q583.6563,55.7344 582.3281,54.0938 Q581.0156,52.4375 581.0156,49.3125 Q581.0156,46.1875 582.3281,44.5313 Q583.6563,42.875 586.1563,42.875 Q586.8594,42.875 587.5,43.0313 Q588.1563,43.1875 588.7188,43.4844 L588.7188,46.2031 Q588.0938,45.625 587.5,45.3594 Q586.9063,45.0781 586.2813,45.0781 Q584.9375,45.0781 584.25,46.1563 Q583.5625,47.2188 583.5625,49.3125 Q583.5625,51.4063 584.25,52.4844 Q584.9375,53.5469 586.2813,53.5469 Q586.9063,53.5469 587.5,53.2813 Q588.0938,53 588.7188,52.4219 L588.7188,55.1406 Z "/><text fill="#000000" font-family="sans-serif" font-size="12" lengthAdjust="spacingAndGlyphs" textLength="115" x="606.25" y="53.6543">InstructionMemory</text><line style="stroke: #A80036; stroke-width: 1.5;" x1="414.5" x2="880.5" y1="65.5" y2="65.5"/><ellipse cx="424.5" cy="76.5" fill="#84BE84" rx="3" ry="3" style="stroke: #038048; stroke-width: 1.0;"/><text fill="#000000" font-family="sans-serif" font-size="11" lengthAdjust="spacingAndGlyphs" textLength="148" x="433.5" y="79.7104">InstructionMemory() : void</text><line style="stroke: #A80036; stroke-width: 1.0; stroke-dasharray: 1.0,2.0;" x1="414.5" x2="880.5" y1="86.3047" y2="86.3047"/><ellipse cx="424.5" cy="97.3047" fill="#84BE84" rx="3" ry="3" style="stroke: #038048; stroke-width: 1.0;"/><text fill="#000000" font-family="sans-serif" font-size="11" lengthAdjust="spacingAndGlyphs" textLength="442" x="433.5" y="100.5151">FetchInstr(std::unique_ptr&lt;Segmentation&gt; &amp; p_Seg, uint32_t p_PC) : uint32_t</text><line style="stroke: #A80036; stroke-width: 1.5;" x1="414.5" x2="880.5" y1="107.1094" y2="107.1094"/><!--MD5=[235609dff0a42a8da5d5bf2dc3138ebb]
reverse link C_0013021121252725846004 to C_0004957594941363761658--><path d="M264.13,146.36 C264.34,160.43 266.08,174.89 270.5,188 C273.91,198.13 278.55,208.08 283.94,217.66 " fill="none" id="C_0013021121252725846004&lt;-C_0004957594941363761658" style="stroke: #A80036; stroke-width: 1.0; stroke-dasharray: 7.0,7.0;"/><polygon fill="#A80036" points="264.11,141.2,260.11,150.2,264.11,146.2,268.11,150.2,264.11,141.2" style="stroke: #A80036; stroke-width: 1.0;"/><ellipse cx="276.5" cy="180.0664" fill="none" rx="3" ry="3" style="stroke: #038048; stroke-width: 1.0;"/><text fill="#000000" font-family="sans-serif" font-size="13" lengthAdjust="spacingAndGlyphs" textLength="52" x="283.5" y="184.0669">«friend»</text><!--MD5=[235609dff0a42a8da5d5bf2dc3138ebb]
reverse link C_0013021121252725846004 to C_0004957594941363761658--><path d="M334.92,158.69 C336.96,162.77 338.83,166.88 340.5,171 C346.47,185.73 350.82,201.95 354,217.95 " fill="none" id="C_0013021121252725846004&lt;-C_0004957594941363761658-1" style="stroke: #A80036; stroke-width: 1.0;"/><polygon fill="none" points="328.75,161.99,325.14,141.11,340.98,155.18,328.75,161.99" style="stroke: #A80036; stroke-width: 1.0;"/><!--MD5=[e308855e6b7b5cc55af6db98f6e55536]
link C_0002524744015807042576 to C_0004957594941363761658--><path d="M598.51,115.64 C565.28,142.86 519.91,180.03 477.83,214.51 " fill="none" id="C_0002524744015807042576-&gt;C_0004957594941363761658" style="stroke: #A80036; stroke-width: 1.0; stroke-dasharray: 7.0,7.0;"/><polygon fill="#A80036" points="473.77,217.84,483.268,215.2348,477.6391,214.673,478.2009,209.0441,473.77,217.84" style="stroke: #A80036; stroke-width: 1.0;"/><!--MD5=[3b61f9f53eba42a53d3288f590de31e1]
@startuml
class "MainMemory" as C_0013021121252725846004
class C_0013021121252725846004 {
+MainMemory() : void
+~MainMemory() : void
..
+Clear() : void
__
-PHY_HIGH_ADDR : const uint32_t
-PHY_LOW_ADDR : const uint32_t
{static} #Storage : std::vector<uint8_t>
}
class "Segmentation" as C_0004957594941363761658
class C_0004957594941363761658 {
+Segmentation(uint32_t p_startAddr, uint32_t p_endAddr, uint32_t p_textLength) : void
..
-AddrTranslate(const uint32_t p_Address) : uint32_t
-EndianceToggle(uint32_t p_Data) : uint32_t
+Read(const uint32_t p_Address) : uint32_t
+Write(const uint32_t & p_Address, const uint32_t & p_Value, std::bitset<4> p_ByteMask = std::bitset<4>("1111")) : void
__
+BSS_ADDR : const uint32_t
+DATA_ADDR : const uint32_t
+END_ADDR : const uint32_t
+HEAP_ADDR : const uint32_t
+START_ADDR : const uint32_t
}
class "InstructionMemory" as C_0002524744015807042576
class C_0002524744015807042576 {
+InstructionMemory() : void
..
+FetchInstr(std::unique_ptr<Segmentation> & p_Seg, uint32_t p_PC) : uint32_t
__
}
C_0013021121252725846004 <.. C_0004957594941363761658 : +<<friend>>
C_0013021121252725846004 <|- - C_0004957594941363761658
C_0002524744015807042576 ..> C_0004957594941363761658

@enduml

PlantUML version 1.2020.02(Sun Mar 01 18:22:07 CST 2020)
(GPL source distribution)
Java Runtime: OpenJDK Runtime Environment
JVM: OpenJDK 64-Bit Server VM
Java Version: 21.0.9+10-Ubuntu-124.04
Operating System: Linux
Default Encoding: UTF-8
Language: en
Country: null
--></g></svg>