<?xml version="1.0" encoding="UTF-8" standalone="no"?><svg xmlns="http://www.w3.org/2000/svg" xmlns:xlink="http://www.w3.org/1999/xlink" contentScriptType="application/ecmascript" contentStyleType="text/css" height="568px" preserveAspectRatio="none" style="width:730px;height:568px;" version="1.1" viewBox="0 0 730 568" width="730px" zoomAndPan="magnify"><defs><filter height="300%" id="f15j1vcuw0onvv" width="300%" x="-1" y="-1"><feGaussianBlur result="blurOut" stdDeviation="2.0"/><feColorMatrix in="blurOut" result="blurOut2" type="matrix" values="0 0 0 0 0 0 0 0 0 0 0 0 0 0 0 0 0 0 .4 0"/><feOffset dx="4.0" dy="4.0" in="blurOut2" result="blurOut3"/><feBlend in="SourceGraphic" in2="blurOut3" mode="normal"/></filter></defs><g><!--MD5=[f200b29a4627f36bad6146faa5ebde4d]
class C_0013021121252725846004--><rect fill="#FEFECE" filter="url(#f15j1vcuw0onvv)" height="132.8281" id="C_0013021121252725846004" style="stroke: #A80036; stroke-width: 1.5;" width="210" x="168.5" y="163"/><ellipse cx="230.75" cy="179" fill="#ADD1B2" rx="11" ry="11" style="stroke: #A80036; stroke-width: 1.0;"/><path d="M233.7188,184.6406 Q233.1406,184.9375 232.5,185.0781 Q231.8594,185.2344 231.1563,185.2344 Q228.6563,185.2344 227.3281,183.5938 Q226.0156,181.9375 226.0156,178.8125 Q226.0156,175.6875 227.3281,174.0313 Q228.6563,172.375 231.1563,172.375 Q231.8594,172.375 232.5,172.5313 Q233.1563,172.6875 233.7188,172.9844 L233.7188,175.7031 Q233.0938,175.125 232.5,174.8594 Q231.9063,174.5781 231.2813,174.5781 Q229.9375,174.5781 229.25,175.6563 Q228.5625,176.7188 228.5625,178.8125 Q228.5625,180.9063 229.25,181.9844 Q229.9375,183.0469 231.2813,183.0469 Q231.9063,183.0469 232.5,182.7813 Q233.0938,182.5 233.7188,181.9219 L233.7188,184.6406 Z "/><text fill="#000000" font-family="sans-serif" font-size="12" lengthAdjust="spacingAndGlyphs" textLength="77" x="251.25" y="183.1543">MainMemory</text><line style="stroke: #A80036; stroke-width: 1.5;" x1="169.5" x2="377.5" y1="195" y2="195"/><ellipse cx="179.5" cy="206" fill="#84BE84" rx="3" ry="3" style="stroke: #038048; stroke-width: 1.0;"/><text fill="#000000" font-family="sans-serif" font-size="11" lengthAdjust="spacingAndGlyphs" textLength="114" x="188.5" y="209.2104">MainMemory() : void</text><ellipse cx="179.5" cy="218.8047" fill="#84BE84" rx="3" ry="3" style="stroke: #038048; stroke-width: 1.0;"/><text fill="#000000" font-family="sans-serif" font-size="11" lengthAdjust="spacingAndGlyphs" textLength="123" x="188.5" y="222.0151">~MainMemory() : void</text><line style="stroke: #A80036; stroke-width: 1.0; stroke-dasharray: 1.0,2.0;" x1="169.5" x2="377.5" y1="228.6094" y2="228.6094"/><ellipse cx="179.5" cy="239.6094" fill="#84BE84" rx="3" ry="3" style="stroke: #038048; stroke-width: 1.0;"/><text fill="#000000" font-family="sans-serif" font-size="11" lengthAdjust="spacingAndGlyphs" textLength="73" x="188.5" y="242.8198">Clear() : void</text><line style="stroke: #A80036; stroke-width: 1.5;" x1="169.5" x2="377.5" y1="249.4141" y2="249.4141"/><rect fill="none" height="6" style="stroke: #C82930; stroke-width: 1.0;" width="6" x="176.5" y="257.4141"/><text fill="#000000" font-family="sans-serif" font-size="11" lengthAdjust="spacingAndGlyphs" textLength="184" x="188.5" y="263.6245">PHY_HIGH_ADDR : const uint32_t</text><rect fill="none" height="6" style="stroke: #C82930; stroke-width: 1.0;" width="6" x="176.5" y="270.2188"/><text fill="#000000" font-family="sans-serif" font-size="11" lengthAdjust="spacingAndGlyphs" textLength="180" x="188.5" y="276.4292">PHY_LOW_ADDR : const uint32_t</text><polygon fill="none" points="179.5,281.0234,183.5,285.0234,179.5,289.0234,175.5,285.0234" style="stroke: #B38D22; stroke-width: 1.0;"/><text fill="#000000" font-family="sans-serif" font-size="11" lengthAdjust="spacingAndGlyphs" text-decoration="underline" textLength="174" x="188.5" y="289.2339">Storage : std::vector&lt;uint8_t&gt;</text><!--MD5=[e3c2fb45959a7b256317014ef8cf1573]
class C_0004957594941363761658--><rect fill="#FEFECE" filter="url(#f15j1vcuw0onvv)" height="184.0469" id="C_0004957594941363761658" style="stroke: #A80036; stroke-width: 1.5;" width="713" x="6" y="373"/><ellipse cx="314.25" cy="389" fill="#ADD1B2" rx="11" ry="11" style="stroke: #A80036; stroke-width: 1.0;"/><path d="M317.2188,394.6406 Q316.6406,394.9375 316,395.0781 Q315.3594,395.2344 314.6563,395.2344 Q312.1563,395.2344 310.8281,393.5938 Q309.5156,391.9375 309.5156,388.8125 Q309.5156,385.6875 310.8281,384.0313 Q312.1563,382.375 314.6563,382.375 Q315.3594,382.375 316,382.5313 Q316.6563,382.6875 317.2188,382.9844 L317.2188,385.7031 Q316.5938,385.125 316,384.8594 Q315.4063,384.5781 314.7813,384.5781 Q313.4375,384.5781 312.75,385.6563 Q312.0625,386.7188 312.0625,388.8125 Q312.0625,390.9063 312.75,391.9844 Q313.4375,393.0469 314.7813,393.0469 Q315.4063,393.0469 316,392.7813 Q316.5938,392.5 317.2188,391.9219 L317.2188,394.6406 Z "/><text fill="#000000" font-family="sans-serif" font-size="12" lengthAdjust="spacingAndGlyphs" textLength="88" x="334.75" y="393.1543">Segmentation</text><line style="stroke: #A80036; stroke-width: 1.5;" x1="7" x2="718" y1="405" y2="405"/><ellipse cx="17" cy="416" fill="#84BE84" rx="3" ry="3" style="stroke: #038048; stroke-width: 1.0;"/><text fill="#000000" font-family="sans-serif" font-size="11" lengthAdjust="spacingAndGlyphs" textLength="483" x="26" y="419.2104">Segmentation(uint32_t p_startAddr, uint32_t p_endAddr, uint32_t p_textLength) : void</text><line style="stroke: #A80036; stroke-width: 1.0; stroke-dasharray: 1.0,2.0;" x1="7" x2="718" y1="425.8047" y2="425.8047"/><rect fill="#F24D5C" height="6" style="stroke: #C82930; stroke-width: 1.0;" width="6" x="14" y="433.8047"/><text fill="#000000" font-family="sans-serif" font-size="11" lengthAdjust="spacingAndGlyphs" textLength="289" x="26" y="440.0151">AddrTranslate(const uint32_t p_Address) : uint32_t</text><rect fill="#F24D5C" height="6" style="stroke: #C82930; stroke-width: 1.0;" width="6" x="14" y="446.6094"/><text fill="#000000" font-family="sans-serif" font-size="11" lengthAdjust="spacingAndGlyphs" textLength="242" x="26" y="452.8198">EndianceToggle(uint32_t p_Data) : uint32_t</text><ellipse cx="17" cy="462.4141" fill="#84BE84" rx="3" ry="3" style="stroke: #038048; stroke-width: 1.0;"/><text fill="#000000" font-family="sans-serif" font-size="11" lengthAdjust="spacingAndGlyphs" textLength="237" x="26" y="465.6245">Read(const uint32_t p_Address) : uint32_t</text><ellipse cx="17" cy="475.2188" fill="#84BE84" rx="3" ry="3" style="stroke: #038048; stroke-width: 1.0;"/><text fill="#000000" font-family="sans-serif" font-size="11" lengthAdjust="spacingAndGlyphs" textLength="687" x="26" y="478.4292">Write(const uint32_t &amp; p_Address, const uint32_t &amp; p_Value, std::bitset&lt;4&gt; p_ByteMask = std::bitset&lt;4&gt;("1111")) : void</text><line style="stroke: #A80036; stroke-width: 1.5;" x1="7" x2="718" y1="485.0234" y2="485.0234"/><ellipse cx="17" cy="496.0234" fill="none" rx="3" ry="3" style="stroke: #038048; stroke-width: 1.0;"/><text fill="#000000" font-family="sans-serif" font-size="11" lengthAdjust="spacingAndGlyphs" textLength="152" x="26" y="499.2339">BSS_ADDR : const uint32_t</text><ellipse cx="17" cy="508.8281" fill="none" rx="3" ry="3" style="stroke: #038048; stroke-width: 1.0;"/><text fill="#000000" font-family="sans-serif" font-size="11" lengthAdjust="spacingAndGlyphs" textLength="157" x="26" y="512.0386">DATA_ADDR : const uint32_t</text><ellipse cx="17" cy="521.6328" fill="none" rx="3" ry="3" style="stroke: #038048; stroke-width: 1.0;"/><text fill="#000000" font-family="sans-serif" font-size="11" lengthAdjust="spacingAndGlyphs" textLength="151" x="26" y="524.8433">END_ADDR : const uint32_t</text><ellipse cx="17" cy="534.4375" fill="none" rx="3" ry="3" style="stroke: #038048; stroke-width: 1.0;"/><text fill="#000000" font-family="sans-serif" font-size="11" lengthAdjust="spacingAndGlyphs" textLength="157" x="26" y="537.6479">HEAP_ADDR : const uint32_t</text><ellipse cx="17" cy="547.2422" fill="none" rx="3" ry="3" style="stroke: #038048; stroke-width: 1.0;"/><text fill="#000000" font-family="sans-serif" font-size="11" lengthAdjust="spacingAndGlyphs" textLength="164" x="26" y="550.4526">START_ADDR : const uint32_t</text><!--MD5=[6a4cdf6c8c63392c592d9e71fab210c9]
class C_0008984092724731283416--><rect fill="#FEFECE" filter="url(#f15j1vcuw0onvv)" height="94.4141" id="C_0008984092724731283416" style="stroke: #A80036; stroke-width: 1.5;" width="538" x="83.5" y="8"/><ellipse cx="326.75" cy="24" fill="#ADD1B2" rx="11" ry="11" style="stroke: #A80036; stroke-width: 1.0;"/><path d="M329.7188,29.6406 Q329.1406,29.9375 328.5,30.0781 Q327.8594,30.2344 327.1563,30.2344 Q324.6563,30.2344 323.3281,28.5938 Q322.0156,26.9375 322.0156,23.8125 Q322.0156,20.6875 323.3281,19.0313 Q324.6563,17.375 327.1563,17.375 Q327.8594,17.375 328.5,17.5313 Q329.1563,17.6875 329.7188,17.9844 L329.7188,20.7031 Q329.0938,20.125 328.5,19.8594 Q327.9063,19.5781 327.2813,19.5781 Q325.9375,19.5781 325.25,20.6563 Q324.5625,21.7188 324.5625,23.8125 Q324.5625,25.9063 325.25,26.9844 Q325.9375,28.0469 327.2813,28.0469 Q327.9063,28.0469 328.5,27.7813 Q329.0938,27.5 329.7188,26.9219 L329.7188,29.6406 Z "/><text fill="#000000" font-family="sans-serif" font-size="12" lengthAdjust="spacingAndGlyphs" textLength="43" x="347.25" y="28.1543">Loader</text><line style="stroke: #A80036; stroke-width: 1.5;" x1="84.5" x2="620.5" y1="40" y2="40"/><ellipse cx="94.5" cy="51" fill="#84BE84" rx="3" ry="3" style="stroke: #038048; stroke-width: 1.0;"/><text fill="#000000" font-family="sans-serif" font-size="11" lengthAdjust="spacingAndGlyphs" textLength="82" x="103.5" y="54.2104">Loader() : void</text><line style="stroke: #A80036; stroke-width: 1.0; stroke-dasharray: 1.0,2.0;" x1="84.5" x2="620.5" y1="60.8047" y2="60.8047"/><ellipse cx="94.5" cy="71.8047" fill="#84BE84" rx="3" ry="3" style="stroke: #038048; stroke-width: 1.0;"/><text fill="#000000" font-family="sans-serif" font-size="11" lengthAdjust="spacingAndGlyphs" textLength="512" x="103.5" y="75.0151">Load(std::string p_filename, MainMemory &amp; p_memory) : std::unique_ptr&lt;Segmentation&gt;</text><line style="stroke: #A80036; stroke-width: 1.5;" x1="84.5" x2="620.5" y1="81.6094" y2="81.6094"/><rect fill="none" height="6" style="stroke: #C82930; stroke-width: 1.0;" width="6" x="91.5" y="89.6094"/><text fill="#000000" font-family="sans-serif" font-size="11" lengthAdjust="spacingAndGlyphs" textLength="110" x="103.5" y="95.8198">startAddr : uint32_t</text><!--MD5=[235609dff0a42a8da5d5bf2dc3138ebb]
reverse link C_0013021121252725846004 to C_0004957594941363761658--><path d="M264.13,301.36 C264.34,315.43 266.08,329.89 270.5,343 C273.91,353.13 278.55,363.08 283.94,372.66 " fill="none" id="C_0013021121252725846004&lt;-C_0004957594941363761658" style="stroke: #A80036; stroke-width: 1.0; stroke-dasharray: 7.0,7.0;"/><polygon fill="#A80036" points="264.11,296.2,260.11,305.2,264.11,301.2,268.11,305.2,264.11,296.2" style="stroke: #A80036; stroke-width: 1.0;"/><ellipse cx="276.5" cy="335.0664" fill="none" rx="3" ry="3" style="stroke: #038048; stroke-width: 1.0;"/><text fill="#000000" font-family="sans-serif" font-size="13" lengthAdjust="spacingAndGlyphs" textLength="52" x="283.5" y="339.0669">«friend»</text><!--MD5=[235609dff0a42a8da5d5bf2dc3138ebb]
reverse link C_0013021121252725846004 to C_0004957594941363761658--><path d="M334.92,313.69 C336.96,317.77 338.83,321.88 340.5,326 C346.47,340.73 350.82,356.95 354,372.95 " fill="none" id="C_0013021121252725846004&lt;-C_0004957594941363761658-1" style="stroke: #A80036; stroke-width: 1.0;"/><polygon fill="none" points="328.75,316.99,325.14,296.11,340.98,310.18,328.75,316.99" style="stroke: #A80036; stroke-width: 1.0;"/><!--MD5=[f60b4bfced3d059d9abb8bff54608fde]
link C_0008984092724731283416 to C_0013021121252725846004--><path d="M331.33,102.23 C323.49,119.34 314.42,139.15 305.82,157.94 " fill="none" id="C_0008984092724731283416-&gt;C_0013021121252725846004" style="stroke: #A80036; stroke-width: 1.0; stroke-dasharray: 7.0,7.0;"/><polygon fill="#A80036" points="303.64,162.69,311.0304,156.1798,305.7262,158.146,303.76,152.8419,303.64,162.69" style="stroke: #A80036; stroke-width: 1.0;"/><!--MD5=[635629bbb4d5adfd110cb9acef1fc344]
link C_0008984092724731283416 to C_0004957594941363761658--><path d="M376.1,102.17 C384.28,120.59 392.41,142.31 396.5,163 C409.91,230.87 400.56,308.47 388.3,367.88 " fill="none" id="C_0008984092724731283416-&gt;C_0004957594941363761658" style="stroke: #A80036; stroke-width: 1.0; stroke-dasharray: 7.0,7.0;"/><polygon fill="#A80036" points="387.26,372.85,393.0236,364.8637,388.2872,367.9566,385.1942,363.2202,387.26,372.85" style="stroke: #A80036; stroke-width: 1.0;"/><!--MD5=[afd6318866c208f67742dfcaf800e9ce]
@startuml
class "MainMemory" as C_0013021121252725846004
class C_0013021121252725846004 {
+MainMemory() : void
+~MainMemory() : void
..
+Clear() : void
__
-PHY_HIGH_ADDR : const uint32_t
-PHY_LOW_ADDR : const uint32_t
{static} #Storage : std::vector<uint8_t>
}
class "Segmentation" as C_0004957594941363761658
class C_0004957594941363761658 {
+Segmentation(uint32_t p_startAddr, uint32_t p_endAddr, uint32_t p_textLength) : void
..
-AddrTranslate(const uint32_t p_Address) : uint32_t
-EndianceToggle(uint32_t p_Data) : uint32_t
+Read(const uint32_t p_Address) : uint32_t
+Write(const uint32_t & p_Address, const uint32_t & p_Value, std::bitset<4> p_ByteMask = std::bitset<4>("1111")) : void
__
+BSS_ADDR : const uint32_t
+DATA_ADDR : const uint32_t
+END_ADDR : const uint32_t
+HEAP_ADDR : const uint32_t
+START_ADDR : const uint32_t
}
class "Loader" as C_0008984092724731283416
class C_0008984092724731283416 {
+Loader() : void
..
+Load(std::string p_filename, MainMemory & p_memory) : std::unique_ptr<Segmentation>
__
-startAddr : uint32_t
}
C_0013021121252725846004 <.. C_0004957594941363761658 : +<<friend>>
C_0013021121252725846004 <|- - C_0004957594941363761658
C_0008984092724731283416 ..> C_0013021121252725846004
C_0008984092724731283416 ..> C_0004957594941363761658

@enduml

PlantUML version 1.2020.02(Sun Mar 01 18:22:07 CST 2020)
(GPL source distribution)
Java Runtime: OpenJDK Runtime Environment
JVM: OpenJDK 64-Bit Server VM
Java Version: 21.0.9+10-Ubuntu-124.04
Operating System: Linux
Default Encoding: UTF-8
Language: en
Country: null
--></g></svg>