<?xml version="1.0" encoding="UTF-8" standalone="no"?><svg xmlns="http://www.w3.org/2000/svg" xmlns:xlink="http://www.w3.org/1999/xlink" contentScriptType="application/ecmascript" contentStyleType="text/css" height="413px" preserveAspectRatio="none" style="width:1650px;height:413px;" version="1.1" viewBox="0 0 1650 413" width="1650px" zoomAndPan="magnify"><defs><filter height="300%" id="fkc8ki837tpoo" width="300%" x="-1" y="-1"><feGaussianBlur result="blurOut" stdDeviation="2.0"/><feColorMatrix in="blurOut" result="blurOut2" type="matrix" values="0 0 0 0 0 0 0 0 0 0 0 0 0 0 0 0 0 0 .4 0"/><feOffset dx="4.0" dy="4.0" in="blurOut2" result="blurOut3"/><feBlend in="SourceGraphic" in2="blurOut3" mode="normal"/></filter></defs><g><!--MD5=[f200b29a4627f36bad6146faa5ebde4d]
class C_0013021121252725846004--><rect fill="#FEFECE" filter="url(#fkc8ki837tpoo)" height="132.8281" id="C_0013021121252725846004" style="stroke: #A80036; stroke-width: 1.5;" width="210" x="258.5" y="8"/><ellipse cx="320.75" cy="24" fill="#ADD1B2" rx="11" ry="11" style="stroke: #A80036; stroke-width: 1.0;"/><path d="M323.7188,29.6406 Q323.1406,29.9375 322.5,30.0781 Q321.8594,30.2344 321.1563,30.2344 Q318.6563,30.2344 317.3281,28.5938 Q316.0156,26.9375 316.0156,23.8125 Q316.0156,20.6875 317.3281,19.0313 Q318.6563,17.375 321.1563,17.375 Q321.8594,17.375 322.5,17.5313 Q323.1563,17.6875 323.7188,17.9844 L323.7188,20.7031 Q323.0938,20.125 322.5,19.8594 Q321.9063,19.5781 321.2813,19.5781 Q319.9375,19.5781 319.25,20.6563 Q318.5625,21.7188 318.5625,23.8125 Q318.5625,25.9063 319.25,26.9844 Q319.9375,28.0469 321.2813,28.0469 Q321.9063,28.0469 322.5,27.7813 Q323.0938,27.5 323.7188,26.9219 L323.7188,29.6406 Z "/><text fill="#000000" font-family="sans-serif" font-size="12" lengthAdjust="spacingAndGlyphs" textLength="77" x="341.25" y="28.1543">MainMemory</text><line style="stroke: #A80036; stroke-width: 1.5;" x1="259.5" x2="467.5" y1="40" y2="40"/><ellipse cx="269.5" cy="51" fill="#84BE84" rx="3" ry="3" style="stroke: #038048; stroke-width: 1.0;"/><text fill="#000000" font-family="sans-serif" font-size="11" lengthAdjust="spacingAndGlyphs" textLength="114" x="278.5" y="54.2104">MainMemory() : void</text><ellipse cx="269.5" cy="63.8047" fill="#84BE84" rx="3" ry="3" style="stroke: #038048; stroke-width: 1.0;"/><text fill="#000000" font-family="sans-serif" font-size="11" lengthAdjust="spacingAndGlyphs" textLength="123" x="278.5" y="67.0151">~MainMemory() : void</text><line style="stroke: #A80036; stroke-width: 1.0; stroke-dasharray: 1.0,2.0;" x1="259.5" x2="467.5" y1="73.6094" y2="73.6094"/><ellipse cx="269.5" cy="84.6094" fill="#84BE84" rx="3" ry="3" style="stroke: #038048; stroke-width: 1.0;"/><text fill="#000000" font-family="sans-serif" font-size="11" lengthAdjust="spacingAndGlyphs" textLength="73" x="278.5" y="87.8198">Clear() : void</text><line style="stroke: #A80036; stroke-width: 1.5;" x1="259.5" x2="467.5" y1="94.4141" y2="94.4141"/><rect fill="none" height="6" style="stroke: #C82930; stroke-width: 1.0;" width="6" x="266.5" y="102.4141"/><text fill="#000000" font-family="sans-serif" font-size="11" lengthAdjust="spacingAndGlyphs" textLength="184" x="278.5" y="108.6245">PHY_HIGH_ADDR : const uint32_t</text><rect fill="none" height="6" style="stroke: #C82930; stroke-width: 1.0;" width="6" x="266.5" y="115.2188"/><text fill="#000000" font-family="sans-serif" font-size="11" lengthAdjust="spacingAndGlyphs" textLength="180" x="278.5" y="121.4292">PHY_LOW_ADDR : const uint32_t</text><polygon fill="none" points="269.5,126.0234,273.5,130.0234,269.5,134.0234,265.5,130.0234" style="stroke: #B38D22; stroke-width: 1.0;"/><text fill="#000000" font-family="sans-serif" font-size="11" lengthAdjust="spacingAndGlyphs" text-decoration="underline" textLength="174" x="278.5" y="134.2339">Storage : std::vector&lt;uint8_t&gt;</text><!--MD5=[e3c2fb45959a7b256317014ef8cf1573]
class C_0004957594941363761658--><rect fill="#FEFECE" filter="url(#fkc8ki837tpoo)" height="184.0469" id="C_0004957594941363761658" style="stroke: #A80036; stroke-width: 1.5;" width="713" x="6" y="218"/><ellipse cx="314.25" cy="234" fill="#ADD1B2" rx="11" ry="11" style="stroke: #A80036; stroke-width: 1.0;"/><path d="M317.2188,239.6406 Q316.6406,239.9375 316,240.0781 Q315.3594,240.2344 314.6563,240.2344 Q312.1563,240.2344 310.8281,238.5938 Q309.5156,236.9375 309.5156,233.8125 Q309.5156,230.6875 310.8281,229.0313 Q312.1563,227.375 314.6563,227.375 Q315.3594,227.375 316,227.5313 Q316.6563,227.6875 317.2188,227.9844 L317.2188,230.7031 Q316.5938,230.125 316,229.8594 Q315.4063,229.5781 314.7813,229.5781 Q313.4375,229.5781 312.75,230.6563 Q312.0625,231.7188 312.0625,233.8125 Q312.0625,235.9063 312.75,236.9844 Q313.4375,238.0469 314.7813,238.0469 Q315.4063,238.0469 316,237.7813 Q316.5938,237.5 317.2188,236.9219 L317.2188,239.6406 Z "/><text fill="#000000" font-family="sans-serif" font-size="12" lengthAdjust="spacingAndGlyphs" textLength="88" x="334.75" y="238.1543">Segmentation</text><line style="stroke: #A80036; stroke-width: 1.5;" x1="7" x2="718" y1="250" y2="250"/><ellipse cx="17" cy="261" fill="#84BE84" rx="3" ry="3" style="stroke: #038048; stroke-width: 1.0;"/><text fill="#000000" font-family="sans-serif" font-size="11" lengthAdjust="spacingAndGlyphs" textLength="483" x="26" y="264.2104">Segmentation(uint32_t p_startAddr, uint32_t p_endAddr, uint32_t p_textLength) : void</text><line style="stroke: #A80036; stroke-width: 1.0; stroke-dasharray: 1.0,2.0;" x1="7" x2="718" y1="270.8047" y2="270.8047"/><rect fill="#F24D5C" height="6" style="stroke: #C82930; stroke-width: 1.0;" width="6" x="14" y="278.8047"/><text fill="#000000" font-family="sans-serif" font-size="11" lengthAdjust="spacingAndGlyphs" textLength="289" x="26" y="285.0151">AddrTranslate(const uint32_t p_Address) : uint32_t</text><rect fill="#F24D5C" height="6" style="stroke: #C82930; stroke-width: 1.0;" width="6" x="14" y="291.6094"/><text fill="#000000" font-family="sans-serif" font-size="11" lengthAdjust="spacingAndGlyphs" textLength="242" x="26" y="297.8198">EndianceToggle(uint32_t p_Data) : uint32_t</text><ellipse cx="17" cy="307.4141" fill="#84BE84" rx="3" ry="3" style="stroke: #038048; stroke-width: 1.0;"/><text fill="#000000" font-family="sans-serif" font-size="11" lengthAdjust="spacingAndGlyphs" textLength="237" x="26" y="310.6245">Read(const uint32_t p_Address) : uint32_t</text><ellipse cx="17" cy="320.2188" fill="#84BE84" rx="3" ry="3" style="stroke: #038048; stroke-width: 1.0;"/><text fill="#000000" font-family="sans-serif" font-size="11" lengthAdjust="spacingAndGlyphs" textLength="687" x="26" y="323.4292">Write(const uint32_t &amp; p_Address, const uint32_t &amp; p_Value, std::bitset&lt;4&gt; p_ByteMask = std::bitset&lt;4&gt;("1111")) : void</text><line style="stroke: #A80036; stroke-width: 1.5;" x1="7" x2="718" y1="330.0234" y2="330.0234"/><ellipse cx="17" cy="341.0234" fill="none" rx="3" ry="3" style="stroke: #038048; stroke-width: 1.0;"/><text fill="#000000" font-family="sans-serif" font-size="11" lengthAdjust="spacingAndGlyphs" textLength="152" x="26" y="344.2339">BSS_ADDR : const uint32_t</text><ellipse cx="17" cy="353.8281" fill="none" rx="3" ry="3" style="stroke: #038048; stroke-width: 1.0;"/><text fill="#000000" font-family="sans-serif" font-size="11" lengthAdjust="spacingAndGlyphs" textLength="157" x="26" y="357.0386">DATA_ADDR : const uint32_t</text><ellipse cx="17" cy="366.6328" fill="none" rx="3" ry="3" style="stroke: #038048; stroke-width: 1.0;"/><text fill="#000000" font-family="sans-serif" font-size="11" lengthAdjust="spacingAndGlyphs" textLength="151" x="26" y="369.8433">END_ADDR : const uint32_t</text><ellipse cx="17" cy="379.4375" fill="none" rx="3" ry="3" style="stroke: #038048; stroke-width: 1.0;"/><text fill="#000000" font-family="sans-serif" font-size="11" lengthAdjust="spacingAndGlyphs" textLength="157" x="26" y="382.6479">HEAP_ADDR : const uint32_t</text><ellipse cx="17" cy="392.2422" fill="none" rx="3" ry="3" style="stroke: #038048; stroke-width: 1.0;"/><text fill="#000000" font-family="sans-serif" font-size="11" lengthAdjust="spacingAndGlyphs" textLength="164" x="26" y="395.4526">START_ADDR : const uint32_t</text><!--MD5=[9d370003c102a980234a36270aa27a8e]
class C_0002877520035885545864--><rect fill="#FEFECE" filter="url(#fkc8ki837tpoo)" height="107.2188" id="C_0002877520035885545864" style="stroke: #A80036; stroke-width: 1.5;" width="249" x="1048" y="21"/><ellipse cx="1137.25" cy="37" fill="#ADD1B2" rx="11" ry="11" style="stroke: #A80036; stroke-width: 1.0;"/><path d="M1140.2188,42.6406 Q1139.6406,42.9375 1139,43.0781 Q1138.3594,43.2344 1137.6563,43.2344 Q1135.1563,43.2344 1133.8281,41.5938 Q1132.5156,39.9375 1132.5156,36.8125 Q1132.5156,33.6875 1133.8281,32.0313 Q1135.1563,30.375 1137.6563,30.375 Q1138.3594,30.375 1139,30.5313 Q1139.6563,30.6875 1140.2188,30.9844 L1140.2188,33.7031 Q1139.5938,33.125 1139,32.8594 Q1138.4063,32.5781 1137.7813,32.5781 Q1136.4375,32.5781 1135.75,33.6563 Q1135.0625,34.7188 1135.0625,36.8125 Q1135.0625,38.9063 1135.75,39.9844 Q1136.4375,41.0469 1137.7813,41.0469 Q1138.4063,41.0469 1139,40.7813 Q1139.5938,40.5 1140.2188,39.9219 L1140.2188,42.6406 Z "/><text fill="#000000" font-family="sans-serif" font-size="12" lengthAdjust="spacingAndGlyphs" textLength="62" x="1157.75" y="41.1543">BaseError</text><line style="stroke: #A80036; stroke-width: 1.5;" x1="1049" x2="1296" y1="53" y2="53"/><ellipse cx="1059" cy="64" fill="#84BE84" rx="3" ry="3" style="stroke: #038048; stroke-width: 1.0;"/><text fill="#000000" font-family="sans-serif" font-size="11" lengthAdjust="spacingAndGlyphs" textLength="223" x="1068" y="67.2104">BaseError(std::string _message) : void</text><line style="stroke: #A80036; stroke-width: 1.0; stroke-dasharray: 1.0,2.0;" x1="1049" x2="1296" y1="73.8047" y2="73.8047"/><ellipse cx="1059" cy="84.8047" fill="#84BE84" rx="3" ry="3" style="stroke: #038048; stroke-width: 1.0;"/><text fill="#000000" font-family="sans-serif" font-size="11" lengthAdjust="spacingAndGlyphs" textLength="161" x="1068" y="88.0151">ShowMessage() : std::string</text><line style="stroke: #A80036; stroke-width: 1.5;" x1="1049" x2="1296" y1="94.6094" y2="94.6094"/><ellipse cx="1059" cy="105.6094" fill="none" rx="3" ry="3" style="stroke: #038048; stroke-width: 1.0;"/><text fill="#000000" font-family="sans-serif" font-size="11" lengthAdjust="spacingAndGlyphs" textLength="193" x="1068" y="108.8198">ExceptionName : const std::string</text><ellipse cx="1059" cy="118.4141" fill="none" rx="3" ry="3" style="stroke: #038048; stroke-width: 1.0;"/><text fill="#000000" font-family="sans-serif" font-size="11" lengthAdjust="spacingAndGlyphs" textLength="124" x="1068" y="121.6245">message : std::string</text><!--MD5=[0aa7652011ced8b01d8760a70b5d7199]
class C_0003868659132226776124--><rect fill="#FEFECE" filter="url(#fkc8ki837tpoo)" height="73.6094" id="C_0003868659132226776124" style="stroke: #A80036; stroke-width: 1.5;" width="251" x="754" y="273"/><ellipse cx="842.25" cy="289" fill="#ADD1B2" rx="11" ry="11" style="stroke: #A80036; stroke-width: 1.0;"/><path d="M845.2188,294.6406 Q844.6406,294.9375 844,295.0781 Q843.3594,295.2344 842.6563,295.2344 Q840.1563,295.2344 838.8281,293.5938 Q837.5156,291.9375 837.5156,288.8125 Q837.5156,285.6875 838.8281,284.0313 Q840.1563,282.375 842.6563,282.375 Q843.3594,282.375 844,282.5313 Q844.6563,282.6875 845.2188,282.9844 L845.2188,285.7031 Q844.5938,285.125 844,284.8594 Q843.4063,284.5781 842.7813,284.5781 Q841.4375,284.5781 840.75,285.6563 Q840.0625,286.7188 840.0625,288.8125 Q840.0625,290.9063 840.75,291.9844 Q841.4375,293.0469 842.7813,293.0469 Q843.4063,293.0469 844,292.7813 Q844.5938,292.5 845.2188,291.9219 L845.2188,294.6406 Z "/><text fill="#000000" font-family="sans-serif" font-size="12" lengthAdjust="spacingAndGlyphs" textLength="66" x="862.75" y="293.1543">ValueError</text><line style="stroke: #A80036; stroke-width: 1.5;" x1="755" x2="1004" y1="305" y2="305"/><ellipse cx="765" cy="316" fill="#84BE84" rx="3" ry="3" style="stroke: #038048; stroke-width: 1.0;"/><text fill="#000000" font-family="sans-serif" font-size="11" lengthAdjust="spacingAndGlyphs" textLength="225" x="774" y="319.2104">ValueError(std::string _message) : void</text><line style="stroke: #A80036; stroke-width: 1.5;" x1="755" x2="1004" y1="325.8047" y2="325.8047"/><ellipse cx="765" cy="336.8047" fill="none" rx="3" ry="3" style="stroke: #038048; stroke-width: 1.0;"/><text fill="#000000" font-family="sans-serif" font-size="11" lengthAdjust="spacingAndGlyphs" textLength="193" x="774" y="340.0151">ExceptionName : const std::string</text><!--MD5=[cc954a92f55a1e01d8c273df060ed1f2]
class C_0017253954068898896589--><rect fill="#FEFECE" filter="url(#fkc8ki837tpoo)" height="73.6094" id="C_0017253954068898896589" style="stroke: #A80036; stroke-width: 1.5;" width="265" x="1040" y="273"/><ellipse cx="1128.75" cy="289" fill="#ADD1B2" rx="11" ry="11" style="stroke: #A80036; stroke-width: 1.0;"/><path d="M1131.7188,294.6406 Q1131.1406,294.9375 1130.5,295.0781 Q1129.8594,295.2344 1129.1563,295.2344 Q1126.6563,295.2344 1125.3281,293.5938 Q1124.0156,291.9375 1124.0156,288.8125 Q1124.0156,285.6875 1125.3281,284.0313 Q1126.6563,282.375 1129.1563,282.375 Q1129.8594,282.375 1130.5,282.5313 Q1131.1563,282.6875 1131.7188,282.9844 L1131.7188,285.7031 Q1131.0938,285.125 1130.5,284.8594 Q1129.9063,284.5781 1129.2813,284.5781 Q1127.9375,284.5781 1127.25,285.6563 Q1126.5625,286.7188 1126.5625,288.8125 Q1126.5625,290.9063 1127.25,291.9844 Q1127.9375,293.0469 1129.2813,293.0469 Q1129.9063,293.0469 1130.5,292.7813 Q1131.0938,292.5 1131.7188,291.9219 L1131.7188,294.6406 Z "/><text fill="#000000" font-family="sans-serif" font-size="12" lengthAdjust="spacingAndGlyphs" textLength="79" x="1149.25" y="293.1543">MemoryError</text><line style="stroke: #A80036; stroke-width: 1.5;" x1="1041" x2="1304" y1="305" y2="305"/><ellipse cx="1051" cy="316" fill="#84BE84" rx="3" ry="3" style="stroke: #038048; stroke-width: 1.0;"/><text fill="#000000" font-family="sans-serif" font-size="11" lengthAdjust="spacingAndGlyphs" textLength="239" x="1060" y="319.2104">MemoryError(std::string _message) : void</text><line style="stroke: #A80036; stroke-width: 1.5;" x1="1041" x2="1304" y1="325.8047" y2="325.8047"/><ellipse cx="1051" cy="336.8047" fill="none" rx="3" ry="3" style="stroke: #038048; stroke-width: 1.0;"/><text fill="#000000" font-family="sans-serif" font-size="11" lengthAdjust="spacingAndGlyphs" textLength="193" x="1060" y="340.0151">ExceptionName : const std::string</text><!--MD5=[56106d95b8909e8508974513f1f781eb]
class C_0018414010278071789712--><rect fill="#FEFECE" filter="url(#fkc8ki837tpoo)" height="73.6094" id="C_0018414010278071789712" style="stroke: #A80036; stroke-width: 1.5;" width="299" x="1340" y="273"/><ellipse cx="1425.75" cy="289" fill="#ADD1B2" rx="11" ry="11" style="stroke: #A80036; stroke-width: 1.0;"/><path d="M1428.7188,294.6406 Q1428.1406,294.9375 1427.5,295.0781 Q1426.8594,295.2344 1426.1563,295.2344 Q1423.6563,295.2344 1422.3281,293.5938 Q1421.0156,291.9375 1421.0156,288.8125 Q1421.0156,285.6875 1422.3281,284.0313 Q1423.6563,282.375 1426.1563,282.375 Q1426.8594,282.375 1427.5,282.5313 Q1428.1563,282.6875 1428.7188,282.9844 L1428.7188,285.7031 Q1428.0938,285.125 1427.5,284.8594 Q1426.9063,284.5781 1426.2813,284.5781 Q1424.9375,284.5781 1424.25,285.6563 Q1423.5625,286.7188 1423.5625,288.8125 Q1423.5625,290.9063 1424.25,291.9844 Q1424.9375,293.0469 1426.2813,293.0469 Q1426.9063,293.0469 1427.5,292.7813 Q1428.0938,292.5 1428.7188,291.9219 L1428.7188,294.6406 Z "/><text fill="#000000" font-family="sans-serif" font-size="12" lengthAdjust="spacingAndGlyphs" textLength="119" x="1446.25" y="293.1543">SegmentationError</text><line style="stroke: #A80036; stroke-width: 1.5;" x1="1341" x2="1638" y1="305" y2="305"/><ellipse cx="1351" cy="316" fill="#84BE84" rx="3" ry="3" style="stroke: #038048; stroke-width: 1.0;"/><text fill="#000000" font-family="sans-serif" font-size="11" lengthAdjust="spacingAndGlyphs" textLength="273" x="1360" y="319.2104">SegmentationError(std::string _message) : void</text><line style="stroke: #A80036; stroke-width: 1.5;" x1="1341" x2="1638" y1="325.8047" y2="325.8047"/><ellipse cx="1351" cy="336.8047" fill="none" rx="3" ry="3" style="stroke: #038048; stroke-width: 1.0;"/><text fill="#000000" font-family="sans-serif" font-size="11" lengthAdjust="spacingAndGlyphs" textLength="193" x="1360" y="340.0151">ExceptionName : const std::string</text><!--MD5=[235609dff0a42a8da5d5bf2dc3138ebb]
reverse link C_0013021121252725846004 to C_0004957594941363761658--><path d="M323.56,146.11 C320.28,154.3 317.47,162.7 315.5,171 C311.88,186.27 312.77,202.24 316.2,217.67 " fill="none" id="C_0013021121252725846004&lt;-C_0004957594941363761658" style="stroke: #A80036; stroke-width: 1.0; stroke-dasharray: 7.0,7.0;"/><polygon fill="#A80036" points="325.66,141.04,318.524,147.828,323.7491,145.6604,325.9167,150.8855,325.66,141.04" style="stroke: #A80036; stroke-width: 1.0;"/><ellipse cx="321.5" cy="180.0664" fill="none" rx="3" ry="3" style="stroke: #038048; stroke-width: 1.0;"/><text fill="#000000" font-family="sans-serif" font-size="13" lengthAdjust="spacingAndGlyphs" textLength="52" x="328.5" y="184.0669">«friend»</text><!--MD5=[235609dff0a42a8da5d5bf2dc3138ebb]
reverse link C_0013021121252725846004 to C_0004957594941363761658--><path d="M384.23,161.31 C384.71,164.57 385.14,167.81 385.5,171 C387.23,186.2 386.71,202.28 384.95,217.88 " fill="none" id="C_0013021121252725846004&lt;-C_0004957594941363761658-1" style="stroke: #A80036; stroke-width: 1.0;"/><polygon fill="none" points="377.26,162.09,380.68,141.18,391.04,159.66,377.26,162.09" style="stroke: #A80036; stroke-width: 1.0;"/><!--MD5=[0460add4d80562bf884409d2b84394c9]
reverse link C_0002877520035885545864 to C_0003868659132226776124--><path d="M1090.61,140.76 C1037.03,183.46 969.02,237.66 924.89,272.82 " fill="none" id="C_0002877520035885545864&lt;-C_0003868659132226776124" style="stroke: #A80036; stroke-width: 1.0;"/><polygon fill="none" points="1086.38,135.18,1106.38,128.19,1095.1,146.13,1086.38,135.18" style="stroke: #A80036; stroke-width: 1.0;"/><!--MD5=[3dbdb5778a1abf6e4c1ffd6600cafc49]
reverse link C_0002877520035885545864 to C_0017253954068898896589--><path d="M1172.5,148.31 C1172.5,189.69 1172.5,239.7 1172.5,272.82 " fill="none" id="C_0002877520035885545864&lt;-C_0017253954068898896589" style="stroke: #A80036; stroke-width: 1.0;"/><polygon fill="none" points="1165.5,148.19,1172.5,128.19,1179.5,148.19,1165.5,148.19" style="stroke: #A80036; stroke-width: 1.0;"/><!--MD5=[9c1458d7a9626f2f75f317458938d379]
reverse link C_0002877520035885545864 to C_0018414010278071789712--><path d="M1260.35,140.21 C1318.44,183 1392.44,237.51 1440.39,272.82 " fill="none" id="C_0002877520035885545864&lt;-C_0018414010278071789712" style="stroke: #A80036; stroke-width: 1.0;"/><polygon fill="none" points="1255.99,145.69,1244.04,128.19,1264.29,134.42,1255.99,145.69" style="stroke: #A80036; stroke-width: 1.0;"/><!--MD5=[6cf23aa6ce7af50186510bec4edccc27]
@startuml
class "MainMemory" as C_0013021121252725846004
class C_0013021121252725846004 {
+MainMemory() : void
+~MainMemory() : void
..
+Clear() : void
__
-PHY_HIGH_ADDR : const uint32_t
-PHY_LOW_ADDR : const uint32_t
{static} #Storage : std::vector<uint8_t>
}
class "Segmentation" as C_0004957594941363761658
class C_0004957594941363761658 {
+Segmentation(uint32_t p_startAddr, uint32_t p_endAddr, uint32_t p_textLength) : void
..
-AddrTranslate(const uint32_t p_Address) : uint32_t
-EndianceToggle(uint32_t p_Data) : uint32_t
+Read(const uint32_t p_Address) : uint32_t
+Write(const uint32_t & p_Address, const uint32_t & p_Value, std::bitset<4> p_ByteMask = std::bitset<4>("1111")) : void
__
+BSS_ADDR : const uint32_t
+DATA_ADDR : const uint32_t
+END_ADDR : const uint32_t
+HEAP_ADDR : const uint32_t
+START_ADDR : const uint32_t
}
class "BaseError" as C_0002877520035885545864
class C_0002877520035885545864 {
+BaseError(std::string _message) : void
..
+ShowMessage() : std::string
__
+ExceptionName : const std::string
+message : std::string
}
class "ValueError" as C_0003868659132226776124
class C_0003868659132226776124 {
+ValueError(std::string _message) : void
__
+ExceptionName : const std::string
}
class "MemoryError" as C_0017253954068898896589
class C_0017253954068898896589 {
+MemoryError(std::string _message) : void
__
+ExceptionName : const std::string
}
class "SegmentationError" as C_0018414010278071789712
class C_0018414010278071789712 {
+SegmentationError(std::string _message) : void
__
+ExceptionName : const std::string
}
C_0013021121252725846004 <.. C_0004957594941363761658 : +<<friend>>
C_0013021121252725846004 <|- - C_0004957594941363761658
C_0002877520035885545864 <|- - C_0003868659132226776124
C_0002877520035885545864 <|- - C_0017253954068898896589
C_0002877520035885545864 <|- - C_0018414010278071789712

@enduml

PlantUML version 1.2020.02(Sun Mar 01 18:22:07 CST 2020)
(GPL source distribution)
Java Runtime: OpenJDK Runtime Environment
JVM: OpenJDK 64-Bit Server VM
Java Version: 21.0.9+10-Ubuntu-124.04
Operating System: Linux
Default Encoding: UTF-8
Language: en
Country: null
--></g></svg>